<svg id="ic_about" xmlns="http://www.w3.org/2000/svg" width="30" height="30" viewBox="0 0 30 30">
  <g id="Rectangle_271" data-name="Rectangle 271" fill="#fff" stroke="#707070" stroke-width="1" opacity="0">
    <rect width="30" height="30" stroke="none"/>
    <rect x="0.5" y="0.5" width="29" height="29" fill="none"/>
  </g>
  <g id="Group_761" data-name="Group 761" transform="translate(5 5)">
    <path id="Path_987" data-name="Path 987" d="M810.638-5198.912v-14.025c.131-.161.248-.334.394-.481q1.615-1.627,3.243-3.243c.146-.146.32-.263.481-.394h11.416a.778.778,0,0,1,.455.822c-.019.821-.006,1.645-.005,2.466,0,.063.006.125.013.242.111-.119.181-.2.258-.277.562-.552,1.1-1.136,1.695-1.646a1.81,1.81,0,0,1,2.81.83,1.83,1.83,0,0,1-.5,1.993q-2.066,2.071-4.138,4.135a.432.432,0,0,0-.144.335q.007,3.435,0,6.869v.214h.221c.516,0,1.033,0,1.549,0a.617.617,0,0,1,.675.669c0,.395.021.79-.006,1.182a3.883,3.883,0,0,1-.163.958,3.026,3.026,0,0,1-2.952,2.083q-4.555,0-9.111,0c-1.08,0-2.162.028-3.24-.011a2.908,2.908,0,0,1-2.629-1.7A6.632,6.632,0,0,1,810.638-5198.912Zm12.17-10.8H813.86c-.49,0-.774-.224-.774-.611s.285-.612.774-.612q4.984,0,9.967,0a.424.424,0,0,0,.339-.136c.363-.376.742-.738,1.1-1.117a.474.474,0,0,0,.124-.295c.009-1.053.005-2.106,0-3.159,0-.059-.008-.117-.011-.173H815.53c0,.987,0,1.958,0,2.929a.633.633,0,0,1-.723.725h-2.947v.2q0,6.309,0,12.618a2.465,2.465,0,0,0,.108.7,1.814,1.814,0,0,0,1.815,1.236,1.8,1.8,0,0,0,1.7-1.555c.045-.437.032-.88.035-1.322.005-.576.211-.787.785-.787h9.07v-6.026c-.074.07-.128.118-.179.17-.932.932-1.86,1.868-2.8,2.791a1.451,1.451,0,0,1-.509.315c-.58.211-1.165.409-1.756.584a1.771,1.771,0,0,0-.931.575.824.824,0,0,1-.7.291c-1.488-.008-2.976,0-4.464,0-.129,0-.259.006-.387,0a.612.612,0,0,1-.568-.609.615.615,0,0,1,.572-.606c.068-.006.135,0,.2,0,1.461,0,2.922,0,4.383,0a.5.5,0,0,0,.281-.112c.352-.273.336-.718.517-1.106H813.86c-.489,0-.774-.225-.774-.612s.285-.611.774-.611q2.7,0,5.4,0a.225.225,0,0,0,.246-.171,2.333,2.333,0,0,1,.327-.525c.146-.179.324-.333.523-.531h-6.5c-.49,0-.774-.224-.775-.609s.285-.613.772-.613q3.761,0,7.522,0a.393.393,0,0,0,.245-.051C822.012-5208.916,822.387-5209.3,822.808-5209.717Zm-6.67,12.306c.081,0,.114.008.148.008q4.831,0,9.662,0a1.962,1.962,0,0,0,.523-.067,1.941,1.941,0,0,0,1.346-2.36H816.744A3.434,3.434,0,0,1,816.137-5197.411Zm6.879-9.105,5.75-5.75-.807-.809-5.75,5.749Zm-2.779,1.955c.732-.245,1.486-.346,1.866-1.034l-.853-.852a3.137,3.137,0,0,0-.579.639A9.473,9.473,0,0,0,820.238-5204.562Zm9.464-8.583c.135-.138.267-.273.4-.41a.846.846,0,0,0,.065-.078.6.6,0,0,0-.046-.783.58.58,0,0,0-.761-.093,6.221,6.221,0,0,0-.529.489Zm-15.4-1.729-1.5,1.475h1.5Z" transform="translate(-810.638 5217.055)" fill="#a2a2a2"/>
    <path id="Path_988" data-name="Path 988" d="M825.614-5209.094c-1.006,0-2.011,0-3.017,0a.61.61,0,0,1-.609-.829.609.609,0,0,1,.589-.391c.449,0,.9,0,1.345,0q2.364,0,4.729,0a.613.613,0,0,1,.629.829.622.622,0,0,1-.629.393Z" transform="translate(-815.789 5213.986)" fill="#a2a2a2"/>
  </g>
</svg>
