<svg width="40" height="40" viewBox="0 0 40 40" fill="none" xmlns="http://www.w3.org/2000/svg">
<circle cx="20.5" cy="20.5" r="17.5" fill="black"/>
<path d="M24.0471 8.83331C24.097 8.83331 24.147 8.83331 24.1998 8.83331C24.3223 10.3471 23.7445 11.4782 23.0423 12.2973C22.3532 13.1108 21.4097 13.8997 19.8837 13.78C19.7819 12.2879 20.3606 11.2407 21.0619 10.4235C21.7123 9.66184 22.9047 8.98413 24.0471 8.83331Z" fill="white"/>
<path d="M28.6667 24.3722C28.6667 24.3873 28.6667 24.4005 28.6667 24.4146C28.2378 25.7135 27.626 26.8267 26.8795 27.8598C26.198 28.7976 25.3629 30.0598 23.8717 30.0598C22.5832 30.0598 21.7274 29.2312 20.4068 29.2086C19.0099 29.186 18.2417 29.9014 16.9645 30.0814C16.8184 30.0814 16.6723 30.0814 16.529 30.0814C15.5911 29.9457 14.8342 29.2029 14.2828 28.5337C12.6569 26.5562 11.4004 24.0018 11.1667 20.7329C11.1667 20.4124 11.1667 20.0929 11.1667 19.7724C11.2656 17.4329 12.4024 15.5308 13.9133 14.6089C14.7108 14.1188 15.807 13.7012 17.0276 13.8878C17.5508 13.9689 18.0852 14.148 18.5537 14.3252C18.9976 14.4958 19.5528 14.7984 20.0788 14.7824C20.4351 14.772 20.7895 14.5863 21.1486 14.4553C22.2005 14.0754 23.2317 13.64 24.5909 13.8445C26.2244 14.0914 27.3838 14.8172 28.1002 15.937C26.7183 16.8165 25.6259 18.1417 25.8125 20.4049C25.9784 22.4606 27.1736 23.6634 28.6667 24.3722Z" fill="white"/>
</svg>
