<svg xmlns="http://www.w3.org/2000/svg" width="45" height="45" viewBox="0 0 45 45">
  <g id="ic_ai_search_unselected" transform="translate(-0.071 0)">
    <g id="Rectangle_144" data-name="Rectangle 144" transform="translate(0.071 0)" fill="#fff" stroke="#707070" stroke-width="1" opacity="0">
      <rect width="45" height="45" stroke="none"/>
      <rect x="0.5" y="0.5" width="44" height="44" fill="none"/>
    </g>
    <g id="Group_976" data-name="Group 976" transform="translate(-648.064 836.993)">
      <path id="Path_1583" data-name="Path 1583" d="M687.632-798.593a1.418,1.418,0,0,1-1.085,1,1.364,1.364,0,0,1-1.256-.445q-2.211-2.228-4.435-4.443c-.085-.085-.174-.167-.264-.253-.5.373-.969.756-1.469,1.1a15.885,15.885,0,0,1-10.49,2.786,16.271,16.271,0,0,1-14.5-12.253,16.351,16.351,0,0,1,7.742-18.179,16.281,16.281,0,0,1,23.8,10.011,16.206,16.206,0,0,1-.239,9.172,1.327,1.327,0,0,1-1.674.957,1.315,1.315,0,0,1-.847-1.73,13.292,13.292,0,0,0-.993-10.737,13.131,13.131,0,0,0-10.4-7.044,13.554,13.554,0,0,0-14.847,10.343,13.627,13.627,0,0,0,10.08,16.484,13.326,13.326,0,0,0,12.634-3.428c.1-.09.19-.186.287-.277a1.3,1.3,0,0,1,1.876.013q2.849,2.835,5.678,5.689a3.484,3.484,0,0,1,.4.632Z" fill="#fff"/>
      <path id="Path_1584" data-name="Path 1584" d="M764.46-693.97a1.249,1.249,0,0,1-1.1-.805c-.118-.261-.212-.534-.3-.806a.3.3,0,0,0-.334-.241q-1.11.018-2.221,0a.315.315,0,0,0-.354.26c-.081.252-.177.5-.28.745a1.32,1.32,0,0,1-1.717.762,1.3,1.3,0,0,1-.744-1.7q1.4-3.725,2.824-7.439a1.443,1.443,0,0,1,1.389-.951,1.42,1.42,0,0,1,1.382.957q1.415,3.719,2.8,7.448A1.322,1.322,0,0,1,764.46-693.97Zm-2.5-4.505-.359-.906-.344.906Z" transform="translate(-94.485 -115.988)" fill="#fff"/>
      <path id="Path_1585" data-name="Path 1585" d="M869.087-700.284q0,1.81,0,3.619a1.332,1.332,0,0,1-1.315,1.44,1.335,1.335,0,0,1-1.327-1.433q-.005-3.653,0-7.305a1.337,1.337,0,0,1,1.32-1.439,1.33,1.33,0,0,1,1.322,1.432Q869.09-702.127,869.087-700.284Z" transform="translate(-193.934 -114.84)" fill="#fff"/>
    </g>
  </g>
</svg>
