<svg width="230" height="102" viewBox="0 0 230 102" fill="none" xmlns="http://www.w3.org/2000/svg">
<path d="M35.96 66.42C32.88 66.42 30.12 65.92 27.68 64.92C25.24 63.92 23.28 62.44 21.8 60.48C20.36 58.52 19.6 56.16 19.52 53.4H30.44C30.6 54.96 31.14 56.16 32.06 57C32.98 57.8 34.18 58.2 35.66 58.2C37.18 58.2 38.38 57.86 39.26 57.18C40.14 56.46 40.58 55.48 40.58 54.24C40.58 53.2 40.22 52.34 39.5 51.66C38.82 50.98 37.96 50.42 36.92 49.98C35.92 49.54 34.48 49.04 32.6 48.48C29.88 47.64 27.66 46.8 25.94 45.96C24.22 45.12 22.74 43.88 21.5 42.24C20.26 40.6 19.64 38.46 19.64 35.82C19.64 31.9 21.06 28.84 23.9 26.64C26.74 24.4 30.44 23.28 35 23.28C39.64 23.28 43.38 24.4 46.22 26.64C49.06 28.84 50.58 31.92 50.78 35.88H39.68C39.6 34.52 39.1 33.46 38.18 32.7C37.26 31.9 36.08 31.5 34.64 31.5C33.4 31.5 32.4 31.84 31.64 32.52C30.88 33.16 30.5 34.1 30.5 35.34C30.5 36.7 31.14 37.76 32.42 38.52C33.7 39.28 35.7 40.1 38.42 40.98C41.14 41.9 43.34 42.78 45.02 43.62C46.74 44.46 48.22 45.68 49.46 47.28C50.7 48.88 51.32 50.94 51.32 53.46C51.32 55.86 50.7 58.04 49.46 60C48.26 61.96 46.5 63.52 44.18 64.68C41.86 65.84 39.12 66.42 35.96 66.42ZM72.8741 66.48C69.5941 66.48 66.6341 65.78 63.9941 64.38C61.3941 62.98 59.3341 60.98 57.8141 58.38C56.3341 55.78 55.5941 52.74 55.5941 49.26C55.5941 45.82 56.3541 42.8 57.8741 40.2C59.3941 37.56 61.4741 35.54 64.1141 34.14C66.7541 32.74 69.7141 32.04 72.9941 32.04C76.2741 32.04 79.2341 32.74 81.8741 34.14C84.5141 35.54 86.5941 37.56 88.1141 40.2C89.6341 42.8 90.3941 45.82 90.3941 49.26C90.3941 52.7 89.6141 55.74 88.0541 58.38C86.5341 60.98 84.4341 62.98 81.7541 64.38C79.1141 65.78 76.1541 66.48 72.8741 66.48ZM72.8741 57.6C74.8341 57.6 76.4941 56.88 77.8541 55.44C79.2541 54 79.9541 51.94 79.9541 49.26C79.9541 46.58 79.2741 44.52 77.9141 43.08C76.5941 41.64 74.9541 40.92 72.9941 40.92C70.9941 40.92 69.3341 41.64 68.0141 43.08C66.6941 44.48 66.0341 46.54 66.0341 49.26C66.0341 51.94 66.6741 54 67.9541 55.44C69.2741 56.88 70.9141 57.6 72.8741 57.6ZM93.7972 49.26C93.7972 45.78 94.4972 42.74 95.8972 40.14C97.3372 37.54 99.3172 35.54 101.837 34.14C104.397 32.74 107.317 32.04 110.597 32.04C114.797 32.04 118.297 33.14 121.097 35.34C123.937 37.54 125.797 40.64 126.677 44.64H115.757C114.837 42.08 113.057 40.8 110.417 40.8C108.537 40.8 107.037 41.54 105.917 43.02C104.797 44.46 104.237 46.54 104.237 49.26C104.237 51.98 104.797 54.08 105.917 55.56C107.037 57 108.537 57.72 110.417 57.72C113.057 57.72 114.837 56.44 115.757 53.88H126.677C125.797 57.8 123.937 60.88 121.097 63.12C118.257 65.36 114.757 66.48 110.597 66.48C107.317 66.48 104.397 65.78 101.837 64.38C99.3172 62.98 97.3372 60.98 95.8972 58.38C94.4972 55.78 93.7972 52.74 93.7972 49.26ZM155.555 49.2C155.555 45.76 156.195 42.74 157.475 40.14C158.795 37.54 160.575 35.54 162.815 34.14C165.055 32.74 167.555 32.04 170.315 32.04C172.675 32.04 174.735 32.52 176.495 33.48C178.295 34.44 179.675 35.7 180.635 37.26V32.52H190.895V66H180.635V61.26C179.635 62.82 178.235 64.08 176.435 65.04C174.675 66 172.615 66.48 170.255 66.48C167.535 66.48 165.055 65.78 162.815 64.38C160.575 62.94 158.795 60.92 157.475 58.32C156.195 55.68 155.555 52.64 155.555 49.2ZM180.635 49.26C180.635 46.7 179.915 44.68 178.475 43.2C177.075 41.72 175.355 40.98 173.315 40.98C171.275 40.98 169.535 41.72 168.095 43.2C166.695 44.64 165.995 46.64 165.995 49.2C165.995 51.76 166.695 53.8 168.095 55.32C169.535 56.8 171.275 57.54 173.315 57.54C175.355 57.54 177.075 56.8 178.475 55.32C179.915 53.84 180.635 51.82 180.635 49.26ZM208.578 21.6V66H198.318V21.6H208.578Z" fill="#6096BA"/>
<path d="M133.47 63.89C135.97 57.88 138.48 51.86 140.98 45.85C138.32 45.94 135.66 46.02 133 46.11C136.14 39.74 139.27 33.37 142.41 27C145.92 27.02 149.44 27.05 152.95 27.07C150.41 31.21 147.86 35.36 145.32 39.5C148.32 39.39 151.32 39.29 154.32 39.18C147.37 47.42 140.42 55.66 133.47 63.89Z" fill="#EBBA1E"/>
<path d="M5.056 96.112C4.23467 96.112 3.49867 95.9787 2.848 95.712C2.19733 95.4453 1.67467 95.0507 1.28 94.528C0.896 94.0053 0.693333 93.376 0.672 92.64H3.584C3.62667 93.056 3.77067 93.376 4.016 93.6C4.26133 93.8133 4.58133 93.92 4.976 93.92C5.38133 93.92 5.70133 93.8293 5.936 93.648C6.17067 93.456 6.288 93.1947 6.288 92.864C6.288 92.5867 6.192 92.3573 6 92.176C5.81867 91.9947 5.58933 91.8453 5.312 91.728C5.04533 91.6107 4.66133 91.4773 4.16 91.328C3.43467 91.104 2.84267 90.88 2.384 90.656C1.92533 90.432 1.53067 90.1013 1.2 89.664C0.869333 89.2267 0.704 88.656 0.704 87.952C0.704 86.9067 1.08267 86.0907 1.84 85.504C2.59733 84.9067 3.584 84.608 4.8 84.608C6.03733 84.608 7.03467 84.9067 7.792 85.504C8.54933 86.0907 8.95467 86.912 9.008 87.968H6.048C6.02667 87.6053 5.89333 87.3227 5.648 87.12C5.40267 86.9067 5.088 86.8 4.704 86.8C4.37333 86.8 4.10667 86.8907 3.904 87.072C3.70133 87.2427 3.6 87.4933 3.6 87.824C3.6 88.1867 3.77067 88.4693 4.112 88.672C4.45333 88.8747 4.98667 89.0933 5.712 89.328C6.43733 89.5733 7.024 89.808 7.472 90.032C7.93067 90.256 8.32533 90.5813 8.656 91.008C8.98667 91.4347 9.152 91.984 9.152 92.656C9.152 93.296 8.98667 93.8773 8.656 94.4C8.336 94.9227 7.86667 95.3387 7.248 95.648C6.62933 95.9573 5.89867 96.112 5.056 96.112ZM14.8998 96.128C14.0251 96.128 13.2358 95.9413 12.5318 95.568C11.8384 95.1947 11.2891 94.6613 10.8838 93.968C10.4891 93.2747 10.2918 92.464 10.2918 91.536C10.2918 90.6187 10.4944 89.8133 10.8997 89.12C11.3051 88.416 11.8598 87.8773 12.5638 87.504C13.2678 87.1307 14.0571 86.944 14.9318 86.944C15.8064 86.944 16.5958 87.1307 17.2998 87.504C18.0038 87.8773 18.5584 88.416 18.9638 89.12C19.3691 89.8133 19.5718 90.6187 19.5718 91.536C19.5718 92.4533 19.3638 93.264 18.9478 93.968C18.5424 94.6613 17.9824 95.1947 17.2678 95.568C16.5638 95.9413 15.7744 96.128 14.8998 96.128ZM14.8998 93.76C15.4224 93.76 15.8651 93.568 16.2278 93.184C16.6011 92.8 16.7878 92.2507 16.7878 91.536C16.7878 90.8213 16.6064 90.272 16.2438 89.888C15.8918 89.504 15.4544 89.312 14.9318 89.312C14.3984 89.312 13.9558 89.504 13.6038 89.888C13.2518 90.2613 13.0758 90.8107 13.0758 91.536C13.0758 92.2507 13.2464 92.8 13.5878 93.184C13.9398 93.568 14.3771 93.76 14.8998 93.76ZM20.4793 91.536C20.4793 90.608 20.6659 89.7973 21.0393 89.104C21.4233 88.4107 21.9513 87.8773 22.6233 87.504C23.3059 87.1307 24.0846 86.944 24.9593 86.944C26.0793 86.944 27.0126 87.2373 27.7593 87.824C28.5166 88.4107 29.0126 89.2373 29.2473 90.304H26.3353C26.0899 89.6213 25.6153 89.28 24.9113 89.28C24.4099 89.28 24.0099 89.4773 23.7113 89.872C23.4126 90.256 23.2633 90.8107 23.2633 91.536C23.2633 92.2613 23.4126 92.8213 23.7113 93.216C24.0099 93.6 24.4099 93.792 24.9113 93.792C25.6153 93.792 26.0899 93.4507 26.3353 92.768H29.2473C29.0126 93.8133 28.5166 94.6347 27.7593 95.232C27.0019 95.8293 26.0686 96.128 24.9593 96.128C24.0846 96.128 23.3059 95.9413 22.6233 95.568C21.9513 95.1947 21.4233 94.6613 21.0393 93.968C20.6659 93.2747 20.4793 92.464 20.4793 91.536ZM32.0868 86.144C31.6068 86.144 31.2121 86.0053 30.9028 85.728C30.6041 85.44 30.4548 85.088 30.4548 84.672C30.4548 84.2453 30.6041 83.8933 30.9028 83.616C31.2121 83.328 31.6068 83.184 32.0868 83.184C32.5561 83.184 32.9401 83.328 33.2388 83.616C33.5481 83.8933 33.7028 84.2453 33.7028 84.672C33.7028 85.088 33.5481 85.44 33.2388 85.728C32.9401 86.0053 32.5561 86.144 32.0868 86.144ZM33.4468 87.072V96H30.7108V87.072H33.4468ZM34.8855 91.52C34.8855 90.6027 35.0562 89.7973 35.3975 89.104C35.7495 88.4107 36.2242 87.8773 36.8215 87.504C37.4188 87.1307 38.0855 86.944 38.8215 86.944C39.4508 86.944 40.0002 87.072 40.4695 87.328C40.9495 87.584 41.3175 87.92 41.5735 88.336V87.072H44.3095V96H41.5735V94.736C41.3068 95.152 40.9335 95.488 40.4535 95.744C39.9842 96 39.4348 96.128 38.8055 96.128C38.0802 96.128 37.4188 95.9413 36.8215 95.568C36.2242 95.184 35.7495 94.6453 35.3975 93.952C35.0562 93.248 34.8855 92.4373 34.8855 91.52ZM41.5735 91.536C41.5735 90.8533 41.3815 90.3147 40.9975 89.92C40.6242 89.5253 40.1655 89.328 39.6215 89.328C39.0775 89.328 38.6135 89.5253 38.2295 89.92C37.8562 90.304 37.6695 90.8373 37.6695 91.52C37.6695 92.2027 37.8562 92.7467 38.2295 93.152C38.6135 93.5467 39.0775 93.744 39.6215 93.744C40.1655 93.744 40.6242 93.5467 40.9975 93.152C41.3815 92.7573 41.5735 92.2187 41.5735 91.536ZM49.0249 84.16V96H46.2889V84.16H49.0249ZM64.4463 96H61.7103L57.1343 89.072V96H54.3983V84.768H57.1343L61.7103 91.728V84.768H64.4463V96ZM74.8455 91.392C74.8455 91.648 74.8295 91.9147 74.7975 92.192H68.6055C68.6482 92.7467 68.8242 93.1733 69.1335 93.472C69.4535 93.76 69.8428 93.904 70.3015 93.904C70.9842 93.904 71.4588 93.616 71.7255 93.04H74.6375C74.4882 93.6267 74.2162 94.1547 73.8215 94.624C73.4375 95.0933 72.9522 95.4613 72.3655 95.728C71.7788 95.9947 71.1228 96.128 70.3975 96.128C69.5228 96.128 68.7442 95.9413 68.0615 95.568C67.3788 95.1947 66.8455 94.6613 66.4615 93.968C66.0775 93.2747 65.8855 92.464 65.8855 91.536C65.8855 90.608 66.0722 89.7973 66.4455 89.104C66.8295 88.4107 67.3628 87.8773 68.0455 87.504C68.7282 87.1307 69.5122 86.944 70.3975 86.944C71.2615 86.944 72.0295 87.1253 72.7015 87.488C73.3735 87.8507 73.8962 88.368 74.2695 89.04C74.6535 89.712 74.8455 90.496 74.8455 91.392ZM72.0455 90.672C72.0455 90.2027 71.8855 89.8293 71.5655 89.552C71.2455 89.2747 70.8455 89.136 70.3655 89.136C69.9068 89.136 69.5175 89.2693 69.1975 89.536C68.8882 89.8027 68.6962 90.1813 68.6215 90.672H72.0455ZM81.2649 93.68V96H79.8729C78.8809 96 78.1075 95.76 77.5529 95.28C76.9982 94.7893 76.7209 93.9947 76.7209 92.896V89.344H75.6329V87.072H76.7209V84.896H79.4569V87.072H81.2489V89.344H79.4569V92.928C79.4569 93.1947 79.5209 93.3867 79.6489 93.504C79.7769 93.6213 79.9902 93.68 80.2889 93.68H81.2649ZM95.6049 87.072L93.1889 96H90.1649L88.7569 90.208L87.3009 96H84.2929L81.8609 87.072H84.5969L85.8609 93.456L87.3649 87.072H90.2609L91.7809 93.424L93.0289 87.072H95.6049ZM100.712 96.128C99.8376 96.128 99.0483 95.9413 98.3443 95.568C97.6509 95.1947 97.1016 94.6613 96.6963 93.968C96.3016 93.2747 96.1043 92.464 96.1043 91.536C96.1043 90.6187 96.3069 89.8133 96.7122 89.12C97.1176 88.416 97.6723 87.8773 98.3763 87.504C99.0803 87.1307 99.8696 86.944 100.744 86.944C101.619 86.944 102.408 87.1307 103.112 87.504C103.816 87.8773 104.371 88.416 104.776 89.12C105.182 89.8133 105.384 90.6187 105.384 91.536C105.384 92.4533 105.176 93.264 104.76 93.968C104.355 94.6613 103.795 95.1947 103.08 95.568C102.376 95.9413 101.587 96.128 100.712 96.128ZM100.712 93.76C101.235 93.76 101.678 93.568 102.04 93.184C102.414 92.8 102.6 92.2507 102.6 91.536C102.6 90.8213 102.419 90.272 102.056 89.888C101.704 89.504 101.267 89.312 100.744 89.312C100.211 89.312 99.7683 89.504 99.4163 89.888C99.0643 90.2613 98.8883 90.8107 98.8883 91.536C98.8883 92.2507 99.0589 92.8 99.4003 93.184C99.7523 93.568 100.19 93.76 100.712 93.76ZM109.572 88.56C109.892 88.0693 110.292 87.6853 110.772 87.408C111.252 87.12 111.785 86.976 112.372 86.976V89.872H111.62C110.937 89.872 110.425 90.0213 110.084 90.32C109.742 90.608 109.572 91.12 109.572 91.856V96H106.836V87.072H109.572V88.56ZM119.136 96L116.416 92.256V96H113.68V84.16H116.416V90.704L119.12 87.072H122.496L118.784 91.552L122.528 96H119.136ZM129.649 84.768V91.488C129.649 92.16 129.814 92.6773 130.145 93.04C130.475 93.4027 130.961 93.584 131.601 93.584C132.241 93.584 132.731 93.4027 133.073 93.04C133.414 92.6773 133.585 92.16 133.585 91.488V84.768H136.321V91.472C136.321 92.4747 136.107 93.3227 135.681 94.016C135.254 94.7093 134.678 95.232 133.953 95.584C133.238 95.936 132.438 96.112 131.553 96.112C130.667 96.112 129.873 95.9413 129.169 95.6C128.475 95.248 127.926 94.7253 127.521 94.032C127.115 93.328 126.913 92.4747 126.913 91.472V84.768H129.649ZM140.978 84.768V96H138.242V84.768H140.978ZM150.415 96.112C149.594 96.112 148.858 95.9787 148.207 95.712C147.557 95.4453 147.034 95.0507 146.639 94.528C146.255 94.0053 146.053 93.376 146.031 92.64H148.943C148.986 93.056 149.13 93.376 149.375 93.6C149.621 93.8133 149.941 93.92 150.335 93.92C150.741 93.92 151.061 93.8293 151.295 93.648C151.53 93.456 151.647 93.1947 151.647 92.864C151.647 92.5867 151.551 92.3573 151.359 92.176C151.178 91.9947 150.949 91.8453 150.671 91.728C150.405 91.6107 150.021 91.4773 149.519 91.328C148.794 91.104 148.202 90.88 147.743 90.656C147.285 90.432 146.89 90.1013 146.559 89.664C146.229 89.2267 146.063 88.656 146.063 87.952C146.063 86.9067 146.442 86.0907 147.199 85.504C147.957 84.9067 148.943 84.608 150.159 84.608C151.397 84.608 152.394 84.9067 153.151 85.504C153.909 86.0907 154.314 86.912 154.367 87.968H151.407C151.386 87.6053 151.253 87.3227 151.007 87.12C150.762 86.9067 150.447 86.8 150.063 86.8C149.733 86.8 149.466 86.8907 149.263 87.072C149.061 87.2427 148.959 87.4933 148.959 87.824C148.959 88.1867 149.13 88.4693 149.471 88.672C149.813 88.8747 150.346 89.0933 151.071 89.328C151.797 89.5733 152.383 89.808 152.831 90.032C153.29 90.256 153.685 90.5813 154.015 91.008C154.346 91.4347 154.511 91.984 154.511 92.656C154.511 93.296 154.346 93.8773 154.015 94.4C153.695 94.9227 153.226 95.3387 152.607 95.648C151.989 95.9573 151.258 96.112 150.415 96.112ZM161.683 86.976C162.707 86.976 163.528 87.3173 164.147 88C164.766 88.672 165.075 89.6 165.075 90.784V96H162.355V91.152C162.355 90.5547 162.2 90.0907 161.891 89.76C161.582 89.4293 161.166 89.264 160.643 89.264C160.12 89.264 159.704 89.4293 159.395 89.76C159.086 90.0907 158.931 90.5547 158.931 91.152V96H156.195V84.16H158.931V88.272C159.208 87.8773 159.587 87.5627 160.067 87.328C160.547 87.0933 161.086 86.976 161.683 86.976ZM171.04 96.128C170.166 96.128 169.376 95.9413 168.672 95.568C167.979 95.1947 167.43 94.6613 167.024 93.968C166.63 93.2747 166.432 92.464 166.432 91.536C166.432 90.6187 166.635 89.8133 167.04 89.12C167.446 88.416 168 87.8773 168.704 87.504C169.408 87.1307 170.198 86.944 171.072 86.944C171.947 86.944 172.736 87.1307 173.44 87.504C174.144 87.8773 174.699 88.416 175.104 89.12C175.51 89.8133 175.712 90.6187 175.712 91.536C175.712 92.4533 175.504 93.264 175.088 93.968C174.683 94.6613 174.123 95.1947 173.408 95.568C172.704 95.9413 171.915 96.128 171.04 96.128ZM171.04 93.76C171.563 93.76 172.006 93.568 172.368 93.184C172.742 92.8 172.928 92.2507 172.928 91.536C172.928 90.8213 172.747 90.272 172.384 89.888C172.032 89.504 171.595 89.312 171.072 89.312C170.539 89.312 170.096 89.504 169.744 89.888C169.392 90.2613 169.216 90.8107 169.216 91.536C169.216 92.2507 169.387 92.8 169.728 93.184C170.08 93.568 170.518 93.76 171.04 93.76ZM189.98 87.072L187.564 96H184.54L183.132 90.208L181.676 96H178.668L176.236 87.072H178.972L180.236 93.456L181.74 87.072H184.636L186.156 93.424L187.404 87.072H189.98ZM190.479 91.536C190.479 90.608 190.666 89.7973 191.039 89.104C191.423 88.4107 191.951 87.8773 192.623 87.504C193.306 87.1307 194.085 86.944 194.959 86.944C196.079 86.944 197.013 87.2373 197.759 87.824C198.517 88.4107 199.013 89.2373 199.247 90.304H196.335C196.09 89.6213 195.615 89.28 194.911 89.28C194.41 89.28 194.01 89.4773 193.711 89.872C193.413 90.256 193.263 90.8107 193.263 91.536C193.263 92.2613 193.413 92.8213 193.711 93.216C194.01 93.6 194.41 93.792 194.911 93.792C195.615 93.792 196.09 93.4507 196.335 92.768H199.247C199.013 93.8133 198.517 94.6347 197.759 95.232C197.002 95.8293 196.069 96.128 194.959 96.128C194.085 96.128 193.306 95.9413 192.623 95.568C191.951 95.1947 191.423 94.6613 191.039 93.968C190.666 93.2747 190.479 92.464 190.479 91.536ZM200.167 91.52C200.167 90.6027 200.337 89.7973 200.679 89.104C201.031 88.4107 201.505 87.8773 202.103 87.504C202.7 87.1307 203.367 86.944 204.103 86.944C204.732 86.944 205.281 87.072 205.751 87.328C206.231 87.584 206.599 87.92 206.855 88.336V87.072H209.591V96H206.855V94.736C206.588 95.152 206.215 95.488 205.735 95.744C205.265 96 204.716 96.128 204.087 96.128C203.361 96.128 202.7 95.9413 202.103 95.568C201.505 95.184 201.031 94.6453 200.679 93.952C200.337 93.248 200.167 92.4373 200.167 91.52ZM206.855 91.536C206.855 90.8533 206.663 90.3147 206.279 89.92C205.905 89.5253 205.447 89.328 204.903 89.328C204.359 89.328 203.895 89.5253 203.511 89.92C203.137 90.304 202.951 90.8373 202.951 91.52C202.951 92.2027 203.137 92.7467 203.511 93.152C203.895 93.5467 204.359 93.744 204.903 93.744C205.447 93.744 205.905 93.5467 206.279 93.152C206.663 92.7573 206.855 92.2187 206.855 91.536ZM215.202 96.128C214.423 96.128 213.73 95.9947 213.122 95.728C212.514 95.4613 212.034 95.0987 211.682 94.64C211.33 94.1707 211.133 93.648 211.09 93.072H213.794C213.826 93.3813 213.97 93.632 214.226 93.824C214.482 94.016 214.797 94.112 215.17 94.112C215.511 94.112 215.773 94.048 215.954 93.92C216.146 93.7813 216.242 93.6053 216.242 93.392C216.242 93.136 216.109 92.9493 215.842 92.832C215.575 92.704 215.143 92.5653 214.546 92.416C213.906 92.2667 213.373 92.112 212.946 91.952C212.519 91.7813 212.151 91.52 211.842 91.168C211.533 90.8053 211.378 90.32 211.378 89.712C211.378 89.2 211.517 88.736 211.794 88.32C212.082 87.8933 212.498 87.5573 213.042 87.312C213.597 87.0667 214.253 86.944 215.01 86.944C216.13 86.944 217.01 87.2213 217.65 87.776C218.301 88.3307 218.674 89.0667 218.77 89.984H216.242C216.199 89.6747 216.061 89.4293 215.826 89.248C215.602 89.0667 215.303 88.976 214.93 88.976C214.61 88.976 214.365 89.04 214.194 89.168C214.023 89.2853 213.938 89.4507 213.938 89.664C213.938 89.92 214.071 90.112 214.338 90.24C214.615 90.368 215.042 90.496 215.618 90.624C216.279 90.7947 216.818 90.9653 217.234 91.136C217.65 91.296 218.013 91.5627 218.322 91.936C218.642 92.2987 218.807 92.7893 218.818 93.408C218.818 93.9307 218.669 94.4 218.37 94.816C218.082 95.2213 217.661 95.5413 217.106 95.776C216.562 96.0107 215.927 96.128 215.202 96.128ZM228.908 91.392C228.908 91.648 228.892 91.9147 228.86 92.192H222.668C222.711 92.7467 222.887 93.1733 223.196 93.472C223.516 93.76 223.905 93.904 224.364 93.904C225.047 93.904 225.521 93.616 225.788 93.04H228.7C228.551 93.6267 228.279 94.1547 227.884 94.624C227.5 95.0933 227.015 95.4613 226.428 95.728C225.841 95.9947 225.185 96.128 224.46 96.128C223.585 96.128 222.807 95.9413 222.124 95.568C221.441 95.1947 220.908 94.6613 220.524 93.968C220.14 93.2747 219.948 92.464 219.948 91.536C219.948 90.608 220.135 89.7973 220.508 89.104C220.892 88.4107 221.425 87.8773 222.108 87.504C222.791 87.1307 223.575 86.944 224.46 86.944C225.324 86.944 226.092 87.1253 226.764 87.488C227.436 87.8507 227.959 88.368 228.332 89.04C228.716 89.712 228.908 90.496 228.908 91.392ZM226.108 90.672C226.108 90.2027 225.948 89.8293 225.628 89.552C225.308 89.2747 224.908 89.136 224.428 89.136C223.969 89.136 223.58 89.2693 223.26 89.536C222.951 89.8027 222.759 90.1813 222.684 90.672H226.108Z" fill="#6096BA"/>
</svg>
