<svg xmlns="http://www.w3.org/2000/svg" width="200" height="200" viewBox="0 0 200 200">
  <g id="img_Bulb" transform="translate(-107 -222)">
    <g id="Rectangle_543" data-name="Rectangle 543" transform="translate(107 222)" fill="#fff" stroke="#707070" stroke-width="1" opacity="0">
      <rect width="200" height="200" stroke="none"/>
      <rect x="0.5" y="0.5" width="199" height="199" fill="none"/>
    </g>
    <g id="Group_1055" data-name="Group 1055" transform="translate(1837.884 1520.373)">
      <path id="Path_1602" data-name="Path 1602" d="M-1536.765-1284.428c1.871,1.013,2.473,2.578,2.4,4.682-.127,3.871-.026,7.75-.04,11.626-.009,2.427-1.34,3.97-3.38,3.97s-3.369-1.541-3.377-3.972c-.013-3.875.087-7.754-.04-11.626-.069-2.1.529-3.67,2.4-4.68Z" transform="translate(-93.01)" fill="#fff"/>
      <path id="Path_1603" data-name="Path 1603" d="M-1544.314-1175.156a50.514,50.514,0,0,1-5,22.167c-4.512,9.607-8.963,19.243-13.494,28.84a2.146,2.146,0,0,0,.271,2.779,9.794,9.794,0,0,1,.569,11.914,1.7,1.7,0,0,0-.054,2.3,9.546,9.546,0,0,1,.573,10.383,9.765,9.765,0,0,1-8.925,5.4q-3.379.081-6.76-.011c-.829-.023-1.147.258-1.394,1.033-2.329,7.317-8.371,11.863-15.652,11.835-7.176-.027-13.214-4.612-15.5-11.82-.24-.76-.532-1.076-1.38-1.05-2.251.069-4.508.069-6.76.013a9.778,9.778,0,0,1-9.007-5.536,9.6,9.6,0,0,1,.719-10.378,1.431,1.431,0,0,0-.033-2,9.842,9.842,0,0,1,.561-12.19,1.931,1.931,0,0,0,.272-2.492c-4.913-10.472-10.006-20.868-14.625-31.47-12.1-27.773,4.252-60.442,33.692-67.661a49.854,49.854,0,0,1,61.058,38.869A40.684,40.684,0,0,1-1544.314-1175.156Zm-38.286,35.722c0,4.226.042,8.452-.027,12.677-.019,1.179.158,1.666,1.517,1.618,3.32-.117,6.649-.091,9.971-.009a1.859,1.859,0,0,0,2-1.3q6.875-14.84,13.822-29.647a43.3,43.3,0,0,0,3.875-24.331,43.112,43.112,0,0,0-50.884-36.62,42.976,42.976,0,0,0-31.127,59.536c4.629,10.547,9.71,20.895,14.556,31.347a1.409,1.409,0,0,0,1.492,1.008c3.549-.045,7.1-.057,10.648.005,1.011.018,1.181-.351,1.178-1.255q-.045-13.016,0-26.031c0-.85-.172-1.216-1.1-1.156-1.234.08-2.479.038-3.717.015a11.529,11.529,0,0,1-11.422-11.588,11.539,11.539,0,0,1,11.442-11.4,11.548,11.548,0,0,1,11.558,11.463c.034,1.555-.7,3.684.313,4.505.96.78,3.005.249,4.573.252,1.457,0,3.4.5,4.242-.23.978-.856.213-2.852.326-4.348.009-.112,0-.225,0-.338a11.566,11.566,0,0,1,10.69-11.282,11.568,11.568,0,0,1,12.24,10.185,11.535,11.535,0,0,1-9.179,12.536,24.824,24.824,0,0,1-5.726.216c-1.077-.021-1.3.313-1.289,1.329C-1582.568-1148-1582.6-1143.717-1582.6-1139.435Zm-11.53,21.021c-7.772,0-15.544-.011-23.316.007-2.237.005-3.673,1.315-3.717,3.282-.047,2.052,1.409,3.439,3.707,3.464,2.59.028,5.181-.013,7.772.013,2.269.023,3.79,1.449,3.744,3.449-.044,1.934-1.529,3.277-3.725,3.3-2.534.027-5.068-.006-7.6.01-2.455.016-3.933,1.338-3.9,3.446.036,2.024,1.5,3.305,3.867,3.307q23.232.014,46.463,0c2.339,0,3.8-1.335,3.8-3.371s-1.456-3.359-3.794-3.379c-2.647-.022-5.294.03-7.94-.02a3.363,3.363,0,0,1-3.489-3.359,3.372,3.372,0,0,1,3.47-3.377c1.632-.048,3.266-.012,4.9-.013,1.014,0,2.028.012,3.041,0,2.343-.034,3.806-1.33,3.813-3.364s-1.45-3.383-3.783-3.388Q-1582.472-1118.432-1594.13-1118.414Zm4.765-20.971c0-4.332-.027-8.666.022-13,.011-.955-.261-1.242-1.216-1.216-2.361.066-4.727.045-7.089.008-.784-.012-1.207.065-1.2,1.053q.058,13.166.006,26.333c0,.809.232,1.058,1.042,1.042,2.362-.048,4.729-.081,7.088.011,1.134.044,1.39-.327,1.375-1.4C-1589.4-1130.831-1589.365-1135.109-1589.365-1139.385Zm3.9,48.082h-17.286a9.093,9.093,0,0,0,8.844,6.02A9.011,9.011,0,0,0-1585.467-1091.3Zm-20.143-72.033c0-.675.044-1.353-.008-2.023a4.745,4.745,0,0,0-4.658-4.437,4.787,4.787,0,0,0-4.748,4.165,4.684,4.684,0,0,0,3.649,5.135,13.937,13.937,0,0,0,2.85.151C-1605.592-1160.329-1605.592-1160.339-1605.61-1163.337Zm25.986,2.969c.731,0,1.468.061,2.191-.011a4.739,4.739,0,0,0,4.287-4.795,4.778,4.778,0,0,0-4.316-4.609,4.742,4.742,0,0,0-5.065,3.967,17.031,17.031,0,0,0-.072,2.525C-1582.606-1160.339-1582.6-1160.339-1579.624-1160.368Z" transform="translate(-36.693 -32.8)" fill="#020201"/>
      <path id="Path_1604" data-name="Path 1604" d="M-1657.339-1234.509a3.008,3.008,0,0,1,1.965.985c3.15,3.132,6.318,6.246,9.417,9.428a3.271,3.271,0,0,1,.128,4.823,3.3,3.3,0,0,1-4.947-.1c-3.136-3.065-6.214-6.19-9.308-9.3a3.3,3.3,0,0,1-.78-3.87A3.294,3.294,0,0,1-1657.339-1234.509Z" transform="translate(-27.245 -27.361)" fill="#ffffff"/>
      <path id="Path_1605" data-name="Path 1605" d="M-1425.936-1231.187a3.628,3.628,0,0,1-1.249,2.669c-2.987,2.977-5.952,5.976-8.953,8.938-1.685,1.663-3.606,1.749-5.068.305s-1.4-3.377.265-5.065c3.039-3.084,6.111-6.135,9.183-9.186a3.286,3.286,0,0,1,3.873-.741A3.153,3.153,0,0,1-1425.936-1231.187Z" transform="translate(-147.251 -27.314)" fill="#ffffff"/>
      <path id="Path_1606" data-name="Path 1606" d="M-1700.825-1107.774c-2.137,0-4.274.025-6.41-.007a3.415,3.415,0,0,1-3.648-3.366,3.456,3.456,0,0,1,3.661-3.381q6.494-.055,12.989,0a3.361,3.361,0,0,1,3.615,3.392c0,1.984-1.422,3.3-3.628,3.36-.056,0-.113,0-.169,0Z" transform="translate(0 -93.115)" fill="#ffffff"/>
      <path id="Path_1607" data-name="Path 1607" d="M-1391.1-1107.779c-2.193,0-4.386.028-6.579-.009a3.31,3.31,0,0,1-3.541-3.269,3.348,3.348,0,0,1,3.532-3.47q6.578-.07,13.158,0a3.428,3.428,0,0,1,3.577,3.463,3.409,3.409,0,0,1-3.568,3.277C-1386.714-1107.749-1388.908-1107.779-1391.1-1107.779Z" transform="translate(-169.741 -93.112)" fill="#ffffff"/>
      <path id="Path_1608" data-name="Path 1608" d="M-1660.958-1002.826a3.082,3.082,0,0,1,1.038-2.278c3.1-3.1,6.176-6.227,9.305-9.3,1.589-1.56,3.548-1.577,4.941-.166a3.335,3.335,0,0,1-.194,4.949c-3.034,3.087-6.115,6.129-9.178,9.187a3.321,3.321,0,0,1-4,.828A3.187,3.187,0,0,1-1660.958-1002.826Z" transform="translate(-27.365 -147.358)" fill="#ffffff"/>
      <path id="Path_1609" data-name="Path 1609" d="M-1426.1-1002.877a3.257,3.257,0,0,1-1.843,3.214,3.007,3.007,0,0,1-3.616-.413c-3.389-3.286-6.743-6.612-10.011-10.018a3.159,3.159,0,0,1,.243-4.549,3.172,3.172,0,0,1,4.558-.056c3.316,3.2,6.548,6.489,9.8,9.759A2.718,2.718,0,0,1-1426.1-1002.877Z" transform="translate(-147.157 -147.337)" fill="#ffffff"/>
      <path id="Path_1610" data-name="Path 1610" d="M-1574.337-1131.284c0-4.282.033-8.565-.024-12.846-.013-1.016.212-1.35,1.289-1.329a24.822,24.822,0,0,0,5.725-.215,11.535,11.535,0,0,0,9.179-12.536,11.568,11.568,0,0,0-12.24-10.185,11.566,11.566,0,0,0-10.69,11.282c0,.113,0,.226,0,.338-.113,1.5.652,3.492-.326,4.348-.84.735-2.785.232-4.241.23-1.568,0-3.614.529-4.573-.252-1.01-.821-.279-2.95-.313-4.5a11.547,11.547,0,0,0-11.558-11.463,11.538,11.538,0,0,0-11.442,11.4,11.529,11.529,0,0,0,11.421,11.588c1.239.022,2.483.065,3.717-.015.933-.061,1.107.306,1.1,1.156q-.042,13.015,0,26.031c0,.9-.167,1.273-1.178,1.255-3.549-.062-7.1-.05-10.648-.005a1.409,1.409,0,0,1-1.492-1.008c-4.846-10.452-9.928-20.8-14.556-31.347a42.976,42.976,0,0,1,31.127-59.536,43.112,43.112,0,0,1,50.884,36.62,43.3,43.3,0,0,1-3.875,24.331q-6.926,14.817-13.822,29.647a1.859,1.859,0,0,1-2,1.3c-3.322-.082-6.65-.109-9.971.009-1.359.048-1.536-.438-1.517-1.618C-1574.3-1122.832-1574.337-1127.058-1574.337-1131.284Z" transform="translate(-44.956 -40.951)" fill="#fdcc68"/>
      <path id="Path_1611" data-name="Path 1611" d="M-1566.5-989.616q11.658,0,23.316.006c2.333,0,3.791,1.346,3.783,3.388s-1.469,3.33-3.813,3.364c-1.014.014-2.027,0-3.041,0-1.633,0-3.268-.036-4.9.013a3.372,3.372,0,0,0-3.47,3.377,3.363,3.363,0,0,0,3.489,3.359c2.646.05,5.294,0,7.94.02,2.338.02,3.8,1.34,3.794,3.378s-1.464,3.37-3.8,3.371q-23.232.017-46.463,0c-2.369,0-3.831-1.282-3.867-3.307-.038-2.108,1.441-3.43,3.9-3.446,2.534-.016,5.069.018,7.6-.01,2.2-.024,3.68-1.368,3.725-3.3.046-2-1.475-3.426-3.744-3.449-2.59-.026-5.181.015-7.772-.013-2.3-.025-3.754-1.413-3.708-3.464.045-1.967,1.48-3.277,3.717-3.282C-1582.04-989.626-1574.268-989.615-1566.5-989.616Zm3.409,10.162a3.411,3.411,0,0,0-3.271-3.4,3.407,3.407,0,0,0-3.48,3.354,3.411,3.411,0,0,0,3.269,3.4A3.413,3.413,0,0,0-1563.087-979.453Z" transform="translate(-64.327 -161.599)" fill="#e0e7ec"/>
      <path id="Path_1612" data-name="Path 1612" d="M-1534.662-1053.266c0,4.276-.035,8.554.025,12.829.015,1.078-.241,1.449-1.375,1.4-2.36-.092-4.726-.059-7.088-.011-.81.017-1.044-.232-1.042-1.042q.039-13.167-.006-26.333c0-.988.418-1.065,1.2-1.053,2.363.037,4.728.057,7.089-.008.956-.026,1.227.261,1.216,1.216C-1534.689-1061.932-1534.662-1057.6-1534.662-1053.266Z" transform="translate(-91.396 -118.919)" fill="#fecc69"/>
      <path id="Path_1613" data-name="Path 1613" d="M-1535.5-929.612a9.011,9.011,0,0,1-8.442,6.02,9.093,9.093,0,0,1-8.844-6.02Z" transform="translate(-86.663 -194.492)" fill="#7eb3fb"/>
      <path id="Path_1614" data-name="Path 1614" d="M-1570.567-1096.868c.018,3,.018,3.007-2.915,2.991a13.935,13.935,0,0,1-2.85-.151,4.684,4.684,0,0,1-3.649-5.135,4.787,4.787,0,0,1,4.749-4.165,4.745,4.745,0,0,1,4.658,4.437C-1570.523-1098.221-1570.567-1097.542-1570.567-1096.868Z" transform="translate(-71.735 -99.269)" fill="#fbca67"/>
      <path id="Path_1615" data-name="Path 1615" d="M-1505.218-1093.9c-2.978.028-2.982.028-2.975-2.923a17.015,17.015,0,0,1,.072-2.525,4.742,4.742,0,0,1,5.065-3.967,4.778,4.778,0,0,1,4.316,4.609,4.739,4.739,0,0,1-4.287,4.795C-1503.75-1093.841-1504.487-1093.9-1505.218-1093.9Z" transform="translate(-111.099 -99.266)" fill="#fbca67"/>
      <path id="Path_1616" data-name="Path 1616" d="M-1534.345-971.244a3.413,3.413,0,0,1-3.482,3.356,3.411,3.411,0,0,1-3.269-3.4,3.407,3.407,0,0,1,3.48-3.354A3.412,3.412,0,0,1-1534.345-971.244Z" transform="translate(-93.069 -169.809)" fill="#070707"/>
    </g>
  </g>
</svg>
