<svg width="45" height="45" viewBox="0 0 45 45" fill="none" xmlns="http://www.w3.org/2000/svg">
<g clip-path="url(#clip0_31_50)">
<path d="M39.497 38.4001C39.4253 38.6503 39.2862 38.8759 39.0948 39.0523C38.9034 39.2287 38.6672 39.349 38.412 39.4001C38.182 39.4395 37.9458 39.4193 37.7259 39.3414C37.506 39.2635 37.3098 39.1304 37.156 38.955C35.682 37.4697 34.2037 35.9887 32.721 34.512C32.636 34.427 32.547 34.3451 32.457 34.2591C31.957 34.6321 31.488 35.0151 30.988 35.3591C27.9269 37.4906 24.2133 38.4768 20.498 38.145C17.1028 37.8772 13.8772 36.5506 11.2758 34.3524C8.67445 32.1541 6.82846 29.195 5.99798 25.8921C5.12867 22.4322 5.41471 18.783 6.81249 15.5009C8.21028 12.2187 10.6431 9.48377 13.74 7.71304C15.9087 6.47861 18.3322 5.75926 20.8232 5.6105C23.3142 5.46174 25.8061 5.88758 28.1063 6.85513C30.4066 7.82268 32.4536 9.30605 34.0893 11.1906C35.7251 13.0752 36.9057 15.3106 37.54 17.7241C38.3455 20.7406 38.2625 23.9256 37.301 26.8961C37.2584 27.0715 37.1805 27.2363 37.072 27.3806C36.9635 27.5248 36.8267 27.6454 36.67 27.735C36.5133 27.8246 36.34 27.8813 36.1607 27.9016C35.9814 27.9219 35.7998 27.9053 35.627 27.8531C35.454 27.8007 35.2936 27.7133 35.1559 27.5962C35.0182 27.4791 34.9061 27.3349 34.8266 27.1726C34.7471 27.0102 34.7019 26.8333 34.6939 26.6527C34.6859 26.4721 34.7152 26.2918 34.78 26.1231C35.3737 24.3633 35.5922 22.4987 35.4211 20.6494C35.2501 18.8001 34.6934 17.0071 33.787 15.3861C32.7801 13.4365 31.3006 11.7704 29.4839 10.5399C27.6671 9.30938 25.571 8.55375 23.387 8.34207C20.0727 7.93445 16.7247 8.76459 13.9849 10.6733C11.245 12.582 9.30607 15.435 8.53997 18.6851C8.11462 20.4295 8.03823 22.2407 8.31512 24.0147C8.59201 25.7888 9.21673 27.4906 10.1534 29.0224C11.0901 30.5542 12.3203 31.8858 13.7733 32.9406C15.2263 33.9955 16.8734 34.7528 18.62 35.1691C20.8429 35.7331 23.1737 35.7139 25.387 35.1134C27.6002 34.5128 29.621 33.3513 31.254 31.7411C31.354 31.6511 31.444 31.5551 31.541 31.4641C31.6632 31.3385 31.8095 31.2389 31.9712 31.1713C32.1329 31.1037 32.3065 31.0694 32.4817 31.0706C32.657 31.0719 32.8302 31.1085 32.9909 31.1783C33.1516 31.2482 33.2965 31.3498 33.417 31.4771C35.3163 33.3671 37.209 35.2634 39.095 37.166C39.2506 37.3617 39.3847 37.5737 39.495 37.7981L39.497 38.4001Z" fill="#8C74FB"/>
<path fill-rule="evenodd" clip-rule="evenodd" d="M26.5 35.5L31.4498 32.3501C31.1824 32.94 31.3567 33.3217 33 32.5C35.4 31.3 36.6667 28.3333 37 27L35 26.5L35.5 23V19L34.5 14.5L31 11L28 9L23.5 7.5H19.5L14 10L9.5 15L7 21.5C7.5 23.5 8.5 27.7 8.5 28.5C8.5 29.3 12.1667 32.8333 14 34.5L22 36.5L26.5 35.5ZM27.0179 21.869V25.488C27.0328 25.6703 27.0099 25.8538 26.9507 26.0269C26.8916 26.2 26.7973 26.3591 26.6739 26.4942C26.5506 26.6293 26.4007 26.7376 26.2336 26.8122C26.0666 26.8868 25.8859 26.9262 25.7029 26.928C25.5197 26.9274 25.3387 26.889 25.1709 26.8154C25.0031 26.7418 24.8523 26.6344 24.7278 26.5C24.6034 26.3656 24.5079 26.207 24.4473 26.0341C24.3868 25.8612 24.3625 25.6776 24.376 25.4949C24.3726 23.0596 24.3726 20.6246 24.376 18.1899C24.362 18.0074 24.3857 17.824 24.4455 17.6509C24.5053 17.4779 24.6001 17.319 24.7238 17.1841C24.8476 17.0492 24.9977 16.9411 25.1649 16.8666C25.3321 16.7921 25.5129 16.7528 25.696 16.751C25.8789 16.7515 26.0597 16.7898 26.2272 16.8634C26.3946 16.937 26.5451 17.0444 26.6691 17.1788C26.7932 17.3132 26.8882 17.4717 26.9482 17.6445C27.0083 17.8173 27.032 18.0006 27.0179 18.183C27.0199 19.4116 27.0199 20.6403 27.0179 21.869ZM21.8401 27.0351C21.5984 27.0219 21.3658 26.9387 21.1706 26.7958C20.9753 26.6529 20.8257 26.4564 20.74 26.23C20.622 25.969 20.528 25.6961 20.44 25.4241C20.4256 25.3489 20.383 25.282 20.3209 25.2372C20.2589 25.1924 20.182 25.173 20.106 25.183C19.366 25.195 18.6257 25.195 17.885 25.183C17.8038 25.1718 17.7213 25.1927 17.6552 25.2412C17.5891 25.2898 17.5446 25.3622 17.531 25.4431C17.45 25.6951 17.354 25.943 17.251 26.188C17.1892 26.3515 17.0956 26.5011 16.9756 26.628C16.8555 26.755 16.7115 26.857 16.5518 26.9279C16.3921 26.9987 16.2198 27.0372 16.0451 27.041C15.8704 27.0448 15.6967 27.0139 15.534 26.9501C15.3725 26.8886 15.2249 26.7956 15.0998 26.6765C14.9747 26.5574 14.8745 26.4145 14.8053 26.2562C14.736 26.0979 14.699 25.9274 14.6964 25.7546C14.6938 25.5819 14.7256 25.4104 14.79 25.2501C15.7233 22.7667 16.6647 20.2871 17.614 17.8111C17.7169 17.5272 17.9063 17.2827 18.1555 17.1121C18.4047 16.9414 18.7011 16.8533 19.003 16.86C19.3053 16.8517 19.6023 16.94 19.8509 17.1121C20.0994 17.2842 20.2866 17.5312 20.385 17.8171C21.3284 20.2964 22.2617 22.7791 23.185 25.2651C23.2607 25.4729 23.2829 25.6965 23.2498 25.9152C23.2166 26.1339 23.1291 26.3408 22.9953 26.5169C22.8614 26.693 22.6856 26.8327 22.4837 26.9233C22.2819 27.0138 22.0606 27.0523 21.8401 27.0351ZM19.3401 22.5301L18.981 21.6241L18.6371 22.5301H19.3401Z" fill="#8C74FB"/>
</g>
<defs>
<clipPath id="clip0_31_50">
<rect width="45" height="45" fill="white"/>
</clipPath>
</defs>
</svg>
