<svg xmlns="http://www.w3.org/2000/svg" width="40" height="40" viewBox="0 0 40 40">
  <g id="icn_About" transform="translate(-96 -455)">
    <g id="Rectangle_258" data-name="Rectangle 258" transform="translate(96 455)" fill="#fff" stroke="#707070" stroke-width="1" opacity="0">
      <rect width="40" height="40" stroke="none"/>
      <rect x="0.5" y="0.5" width="39" height="39" fill="none"/>
    </g>
    <g id="Group_623" data-name="Group 623" transform="translate(-253.516 4599.055)">
      <path id="Path_968" data-name="Path 968" d="M368.632-4139.055h1.817c.5.065,1,.115,1.5.2a14.734,14.734,0,0,1,7.521,3.6,14.763,14.763,0,0,1,4.812,8.62c.1.545.155,1.1.231,1.646v1.817c-.017.094-.035.188-.05.282-.12.77-.188,1.553-.367,2.309a15,15,0,0,1-20.36,10.375,14.991,14.991,0,0,1-9-16.449,15,15,0,0,1,11.814-12.1C367.237-4138.889,367.937-4138.957,368.632-4139.055Zm-11.619,14.993a12.489,12.489,0,0,0,12.463,12.511,12.5,12.5,0,0,0,12.533-12.534,12.489,12.489,0,0,0-12.51-12.464A12.49,12.49,0,0,0,357.013-4124.062Z"/>
      <path id="Path_969" data-name="Path 969" d="M532.578-3989.087c0,1.65.007,3.3,0,4.95a1.241,1.241,0,0,1-1.7,1.194,1.244,1.244,0,0,1-.786-1.222c0-1.347,0-2.695,0-4.042,0-1.953-.005-3.906,0-5.858a1.24,1.24,0,0,1,1.63-1.232,1.243,1.243,0,0,1,.857,1.26C532.58-3992.387,532.578-3990.737,532.578-3989.087Z" transform="translate(-161.822 -132.442)"/>
      <path id="Path_970" data-name="Path 970" d="M531.389-4056.634a1.229,1.229,0,0,1-1.256-1.231,1.228,1.228,0,0,1,1.231-1.255,1.228,1.228,0,0,1,1.256,1.23A1.229,1.229,0,0,1,531.389-4056.634Z" transform="translate(-161.866 -73.675)"/>
    </g>
  </g>
</svg>
