<svg width="196" height="90" viewBox="0 0 196 90" fill="none" xmlns="http://www.w3.org/2000/svg">
<path d="M18.96 66.42C15.88 66.42 13.12 65.92 10.68 64.92C8.24 63.92 6.28 62.44 4.8 60.48C3.36 58.52 2.6 56.16 2.52 53.4H13.44C13.6 54.96 14.14 56.16 15.06 57C15.98 57.8 17.18 58.2 18.66 58.2C20.18 58.2 21.38 57.86 22.26 57.18C23.14 56.46 23.58 55.48 23.58 54.24C23.58 53.2 23.22 52.34 22.5 51.66C21.82 50.98 20.96 50.42 19.92 49.98C18.92 49.54 17.48 49.04 15.6 48.48C12.88 47.64 10.66 46.8 8.94 45.96C7.22 45.12 5.74 43.88 4.5 42.24C3.26 40.6 2.64 38.46 2.64 35.82C2.64 31.9 4.06 28.84 6.9 26.64C9.74 24.4 13.44 23.28 18 23.28C22.64 23.28 26.38 24.4 29.22 26.64C32.06 28.84 33.58 31.92 33.78 35.88H22.68C22.6 34.52 22.1 33.46 21.18 32.7C20.26 31.9 19.08 31.5 17.64 31.5C16.4 31.5 15.4 31.84 14.64 32.52C13.88 33.16 13.5 34.1 13.5 35.34C13.5 36.7 14.14 37.76 15.42 38.52C16.7 39.28 18.7 40.1 21.42 40.98C24.14 41.9 26.34 42.78 28.02 43.62C29.74 44.46 31.22 45.68 32.46 47.28C33.7 48.88 34.32 50.94 34.32 53.46C34.32 55.86 33.7 58.04 32.46 60C31.26 61.96 29.5 63.52 27.18 64.68C24.86 65.84 22.12 66.42 18.96 66.42ZM55.8741 66.48C52.5941 66.48 49.6341 65.78 46.9941 64.38C44.3941 62.98 42.3341 60.98 40.8141 58.38C39.3341 55.78 38.5941 52.74 38.5941 49.26C38.5941 45.82 39.3541 42.8 40.8741 40.2C42.3941 37.56 44.4741 35.54 47.1141 34.14C49.7541 32.74 52.7141 32.04 55.9941 32.04C59.2741 32.04 62.2341 32.74 64.8741 34.14C67.5141 35.54 69.5941 37.56 71.1141 40.2C72.6341 42.8 73.3941 45.82 73.3941 49.26C73.3941 52.7 72.6141 55.74 71.0541 58.38C69.5341 60.98 67.4341 62.98 64.7541 64.38C62.1141 65.78 59.1541 66.48 55.8741 66.48ZM55.8741 57.6C57.8341 57.6 59.4941 56.88 60.8541 55.44C62.2541 54 62.9541 51.94 62.9541 49.26C62.9541 46.58 62.2741 44.52 60.9141 43.08C59.5941 41.64 57.9541 40.92 55.9941 40.92C53.9941 40.92 52.3341 41.64 51.0141 43.08C49.6941 44.48 49.0341 46.54 49.0341 49.26C49.0341 51.94 49.6741 54 50.9541 55.44C52.2741 56.88 53.9141 57.6 55.8741 57.6ZM76.7972 49.26C76.7972 45.78 77.4972 42.74 78.8972 40.14C80.3372 37.54 82.3172 35.54 84.8372 34.14C87.3972 32.74 90.3172 32.04 93.5972 32.04C97.7972 32.04 101.297 33.14 104.097 35.34C106.937 37.54 108.797 40.64 109.677 44.64H98.7572C97.8372 42.08 96.0572 40.8 93.4172 40.8C91.5372 40.8 90.0372 41.54 88.9172 43.02C87.7972 44.46 87.2372 46.54 87.2372 49.26C87.2372 51.98 87.7972 54.08 88.9172 55.56C90.0372 57 91.5372 57.72 93.4172 57.72C96.0572 57.72 97.8372 56.44 98.7572 53.88H109.677C108.797 57.8 106.937 60.88 104.097 63.12C101.257 65.36 97.7572 66.48 93.5972 66.48C90.3172 66.48 87.3972 65.78 84.8372 64.38C82.3172 62.98 80.3372 60.98 78.8972 58.38C77.4972 55.78 76.7972 52.74 76.7972 49.26ZM138.555 49.2C138.555 45.76 139.195 42.74 140.475 40.14C141.795 37.54 143.575 35.54 145.815 34.14C148.055 32.74 150.555 32.04 153.315 32.04C155.675 32.04 157.735 32.52 159.495 33.48C161.295 34.44 162.675 35.7 163.635 37.26V32.52H173.895V66H163.635V61.26C162.635 62.82 161.235 64.08 159.435 65.04C157.675 66 155.615 66.48 153.255 66.48C150.535 66.48 148.055 65.78 145.815 64.38C143.575 62.94 141.795 60.92 140.475 58.32C139.195 55.68 138.555 52.64 138.555 49.2ZM163.635 49.26C163.635 46.7 162.915 44.68 161.475 43.2C160.075 41.72 158.355 40.98 156.315 40.98C154.275 40.98 152.535 41.72 151.095 43.2C149.695 44.64 148.995 46.64 148.995 49.2C148.995 51.76 149.695 53.8 151.095 55.32C152.535 56.8 154.275 57.54 156.315 57.54C158.355 57.54 160.075 56.8 161.475 55.32C162.915 53.84 163.635 51.82 163.635 49.26ZM191.578 21.6V66H181.318V21.6H191.578Z" fill="black"/>
<path d="M116.47 63.89C118.97 57.88 121.48 51.86 123.98 45.85C121.32 45.94 118.66 46.02 116 46.11C119.14 39.74 122.27 33.37 125.41 27C128.92 27.02 132.44 27.05 135.95 27.07C133.41 31.21 130.86 35.36 128.32 39.5C131.32 39.39 134.32 39.29 137.32 39.18C130.37 47.42 123.42 55.66 116.47 63.89Z" fill="#EBBA1E"/>
</svg>
