<svg width="45" height="45" viewBox="0 0 45 45" fill="none" xmlns="http://www.w3.org/2000/svg">
<g clip-path="url(#clip0_31_11)">
<path d="M4.98499 34.06C5.25699 33.197 5.53099 32.335 5.79999 31.471C5.98199 30.886 6.17 30.303 6.327 29.711C6.37068 29.538 6.35663 29.3553 6.28699 29.191C5.66609 27.9235 5.30708 26.544 5.23145 25.1346C5.15581 23.7253 5.36507 22.3151 5.84674 20.9885C6.32841 19.6619 7.0726 18.4458 8.03482 17.4133C8.99704 16.3808 10.1576 15.5528 11.447 14.979C12.2806 14.6546 13.1373 14.3933 14.01 14.197C14.2307 14.1562 14.4301 14.0391 14.573 13.8661C15.8538 12.1346 17.5459 10.7495 19.4963 9.83603C21.4467 8.92255 23.5939 8.50946 25.744 8.634C28.7413 8.77064 31.6026 9.92499 33.8556 11.9066C36.1086 13.8882 37.6188 16.5786 38.137 19.534C38.6521 22.3478 38.228 25.2528 36.93 27.802C36.8808 27.8911 36.8508 27.9896 36.842 28.091C36.8332 28.1925 36.8458 28.2947 36.879 28.391C37.442 30.22 37.987 32.055 38.554 33.883C38.6447 34.0836 38.6728 34.3068 38.6346 34.5235C38.5964 34.7403 38.4937 34.9405 38.34 35.098C38.1811 35.2428 37.9832 35.338 37.7708 35.3715C37.5584 35.4051 37.3408 35.3757 37.145 35.287C35.316 34.724 33.483 34.173 31.654 33.608C31.5577 33.576 31.4557 33.5645 31.3547 33.5739C31.2537 33.5834 31.1557 33.6137 31.067 33.6631C29.4306 34.493 27.639 34.972 25.8069 35.0697C23.9747 35.1673 22.1423 34.8813 20.427 34.2299C20.2581 34.1758 20.0759 34.1804 19.91 34.243C18.5209 34.8384 17.0202 35.1287 15.5093 35.0942C13.9984 35.0597 12.5124 34.7013 11.152 34.0431C10.9684 33.9649 10.7642 33.9494 10.571 33.999C9.23698 34.384 7.90899 34.7929 6.57999 35.1989C5.74799 35.4509 5.42399 35.328 4.98499 34.586V34.06ZM36.116 32.849C35.651 31.315 35.216 29.8599 34.768 28.4069C34.7088 28.231 34.6882 28.0444 34.7077 27.8597C34.7272 27.6751 34.7863 27.4967 34.881 27.337C36.1443 25.1046 36.5962 22.5038 36.16 19.976C35.8969 18.442 35.3178 16.9794 34.4594 15.6811C33.601 14.3828 32.4821 13.2772 31.1736 12.4344C29.8651 11.5916 28.3957 11.0299 26.8587 10.7852C25.3216 10.5406 23.7505 10.6182 22.245 11.013C20.0565 11.5847 18.094 12.8097 16.6193 14.5247C15.1445 16.2398 14.2273 18.3635 13.99 20.613C13.7646 22.3067 13.9482 24.0298 14.5253 25.638C15.1024 27.2463 16.0562 28.693 17.307 29.857C19.0334 31.5696 21.2751 32.6669 23.6867 32.9797C26.0983 33.2925 28.5458 32.8035 30.652 31.588C30.7984 31.5025 30.9615 31.4495 31.1302 31.4322C31.2988 31.415 31.4693 31.434 31.63 31.488C32.319 31.704 33.011 31.909 33.702 32.118L36.116 32.849ZM12.897 16.572C12.853 16.585 12.797 16.6 12.734 16.622C11.4663 17.0968 10.3336 17.8735 9.43399 18.885C8.25158 20.1887 7.50613 21.8293 7.30191 23.5775C7.09769 25.3256 7.4449 27.0938 8.29498 28.635C8.40653 28.8162 8.4753 29.0204 8.49609 29.2321C8.51689 29.4439 8.48915 29.6576 8.41498 29.857C8.24098 30.34 8.109 30.838 7.961 31.331C7.821 31.796 7.68398 32.262 7.53098 32.776C7.67998 32.737 7.77298 32.7171 7.86398 32.6891C8.77498 32.4151 9.68698 32.143 10.597 31.864C10.7524 31.8103 10.9175 31.7906 11.0812 31.8061C11.2449 31.8216 11.4034 31.872 11.546 31.9539C12.645 32.5768 13.8683 32.9488 15.128 33.0431C15.9663 33.1079 16.8097 33.0423 17.628 32.849C12.214 28.529 10.627 23.136 12.897 16.572Z" fill="#8C74FB" stroke="#8C74FB" stroke-width="0.5"/>
<path fill-rule="evenodd" clip-rule="evenodd" d="M20 32L16 29.5L14 25.5V18.5L17 13.5L21.5 11L28 10.5L34.5 14.5L37 21.5L35.5 27V28.5L36.5 33V34L31.5 32L28 33L24.5 33.5L20 32ZM29.59 17.0961H25.123C23.6343 17.0961 22.1453 17.0957 20.656 17.095C20.5142 17.0899 20.3724 17.1031 20.234 17.1341C19.9986 17.1951 19.7935 17.3399 19.6571 17.5413C19.5207 17.7427 19.4623 17.9868 19.493 18.2281C19.5249 18.4928 19.6586 18.7348 19.8658 18.9027C20.0729 19.0707 20.3373 19.1516 20.603 19.1281H29.603C29.7454 19.142 29.889 19.1265 30.0252 19.0826C30.1613 19.0386 30.2869 18.9671 30.3943 18.8726C30.5017 18.7781 30.5885 18.6626 30.6493 18.5331C30.7101 18.4037 30.7437 18.263 30.748 18.12C30.7461 17.9745 30.7137 17.831 30.6531 17.6986C30.5924 17.5663 30.5047 17.4481 30.3957 17.3517C30.2866 17.2553 30.1586 17.1827 30.0199 17.1387C29.8811 17.0947 29.7347 17.0802 29.59 17.0961ZM25.119 20.8421H29.719C29.9627 20.8359 30.2002 20.919 30.3869 21.0757C30.5737 21.2324 30.6967 21.452 30.733 21.693C30.7684 21.9164 30.7271 22.1453 30.6158 22.3422C30.5045 22.5391 30.3297 22.6924 30.12 22.7771C29.9561 22.8376 29.7827 22.8683 29.608 22.8681C26.608 22.8734 23.608 22.8734 20.608 22.8681C20.3484 22.8908 20.0899 22.8146 19.8843 22.6544C19.6788 22.4943 19.5414 22.2623 19.5 22.005C19.4593 21.7651 19.5081 21.5187 19.6371 21.3124C19.7662 21.1061 19.9665 20.9544 20.2 20.886C20.3481 20.8494 20.5006 20.834 20.653 20.8401C22.1416 20.8368 23.6303 20.8374 25.119 20.8421ZM26.511 24.5791H23.586C23.0876 24.5791 22.5895 24.5783 22.0912 24.5775C21.5927 24.5768 21.0941 24.576 20.595 24.576C20.4555 24.5631 20.3149 24.579 20.1819 24.6229C20.0489 24.6668 19.9264 24.7376 19.822 24.831C19.7176 24.9244 19.6336 25.0383 19.5753 25.1656C19.517 25.2929 19.4855 25.431 19.483 25.571C19.4814 25.7116 19.509 25.8511 19.5639 25.9806C19.6188 26.11 19.6999 26.2267 19.802 26.3233C19.9042 26.42 20.0253 26.4945 20.1576 26.5421C20.2899 26.5897 20.4307 26.6095 20.571 26.6001C22.565 26.6094 24.5586 26.6094 26.552 26.6001C26.6923 26.6101 26.8333 26.591 26.966 26.5443C27.0988 26.4975 27.2205 26.4241 27.3236 26.3283C27.4268 26.2326 27.5092 26.1167 27.5656 25.9878C27.6221 25.8589 27.6515 25.7198 27.652 25.5791C27.6485 25.4365 27.6155 25.2962 27.5551 25.1671C27.4946 25.0379 27.4081 24.9227 27.3008 24.8287C27.1936 24.7347 27.068 24.664 26.9321 24.6211C26.7961 24.5781 26.6527 24.5638 26.511 24.5791Z" fill="#8C74FB"/>
</g>
<defs>
<clipPath id="clip0_31_11">
<rect width="45" height="45" fill="white"/>
</clipPath>
</defs>
</svg>
