<svg xmlns="http://www.w3.org/2000/svg" width="45" height="45" viewBox="0 0 45 45">
  <g id="ic_chats_unselected" transform="translate(-0.263 0)">
    <g id="Rectangle_115" data-name="Rectangle 115" transform="translate(0.263 0)" fill="#fff" stroke="#707070" stroke-width="1" opacity="0">
      <rect width="45" height="45" stroke="none"/>
      <rect x="0.5" y="0.5" width="44" height="44" fill="none"/>
    </g>
    <g id="Group_284" data-name="Group 284" transform="translate(5.248 8.623)">
      <path id="Path_879" data-name="Path 879" d="M-298,1323.4c.272-.863.546-1.725.815-2.589.182-.585.37-1.168.527-1.76a.819.819,0,0,0-.04-.52,10.5,10.5,0,0,1,5.16-14.212,17.9,17.9,0,0,1,2.563-.782.955.955,0,0,0,.563-.331,12.963,12.963,0,0,1,11.171-5.232,13.192,13.192,0,0,1,12.393,10.9,13.045,13.045,0,0,1-1.207,8.268.728.728,0,0,0-.051.589c.563,1.829,1.108,3.664,1.675,5.492a1.094,1.094,0,0,1-.214,1.215,1.1,1.1,0,0,1-1.195.189c-1.829-.563-3.662-1.114-5.491-1.679a.733.733,0,0,0-.587.055,13.179,13.179,0,0,1-10.64.567.785.785,0,0,0-.517.013,10.558,10.558,0,0,1-8.758-.2.907.907,0,0,0-.581-.044c-1.334.385-2.662.794-3.991,1.2-.832.252-1.156.129-1.595-.613Zm31.131-1.211c-.465-1.534-.9-2.989-1.348-4.442a1.291,1.291,0,0,1,.113-1.07,11.11,11.11,0,0,0,1.279-7.361,11.228,11.228,0,0,0-13.915-8.963,11.129,11.129,0,0,0-8.255,9.6,10.7,10.7,0,0,0,3.317,9.244,11.083,11.083,0,0,0,13.345,1.731,1.189,1.189,0,0,1,.978-.1c.689.216,1.381.421,2.072.63Zm-23.219-16.277c-.044.013-.1.028-.163.05a8.324,8.324,0,0,0-3.3,2.263,8.443,8.443,0,0,0-1.139,9.75,1.4,1.4,0,0,1,.12,1.222c-.174.483-.306.981-.454,1.474-.14.465-.277.931-.43,1.445.149-.039.242-.059.333-.087.911-.274,1.823-.546,2.733-.825a1.151,1.151,0,0,1,.949.09,8.56,8.56,0,0,0,3.582,1.089,8.142,8.142,0,0,0,2.5-.194C-290.771,1317.869-292.358,1312.477-290.088,1305.913Z" transform="translate(298 -1297.963)" fill="#fff" stroke="#fff" stroke-width="0.5"/>
      <path id="Path_880" data-name="Path 880" d="M-72.679,1426.3q2.233,0,4.467,0a1.044,1.044,0,0,1,1.158,1.024,1.044,1.044,0,0,1-1.145,1.008q-4.5,0-9,0a1.027,1.027,0,0,1-1.11-.9,1,1,0,0,1,.741-1.094,1.66,1.66,0,0,1,.422-.039Q-74.912,1426.3-72.679,1426.3Z" transform="translate(92.817 -1417.827)" fill="#fff"/>
      <path id="Path_881" data-name="Path 881" d="M-72.667,1483c1.533,0,3.065,0,4.6,0a1,1,0,0,1,1.014.851,1,1,0,0,1-.613,1.084,1.473,1.473,0,0,1-.512.091q-4.5.008-9,0a1.031,1.031,0,0,1-1.108-.863.993.993,0,0,1,.7-1.119,1.618,1.618,0,0,1,.453-.046Q-74.9,1482.993-72.667,1483Z" transform="translate(92.801 -1470.781)" fill="#fff"/>
      <path id="Path_882" data-name="Path 882" d="M-74.257,1539.675c.975,0,1.95,0,2.925,0a1.031,1.031,0,0,1,1.141,1,1.027,1.027,0,0,1-1.1,1.021q-2.99.014-5.981,0a1.02,1.02,0,0,1-1.088-1.029,1.018,1.018,0,0,1,1.112-.995C-76.25,1539.672-75.254,1539.675-74.257,1539.675Z" transform="translate(92.858 -1523.719)" fill="#fff"/>
    </g>
  </g>
</svg>
