<svg xmlns="http://www.w3.org/2000/svg" width="18.182" height="18.182" viewBox="0 0 18.182 18.182">
  <path id="icn_Cross" d="M20.587,16.535h0l-5.516-5.516L20.587,5.5h0a.569.569,0,0,0,0-.8L17.981,2.094a.57.57,0,0,0-.8,0h0L11.662,7.61,6.146,2.094h0a.57.57,0,0,0-.8,0L2.737,4.7a.57.57,0,0,0,0,.8h0l5.516,5.516L2.737,16.535h0a.569.569,0,0,0,0,.8l2.606,2.606a.57.57,0,0,0,.8,0h0l5.516-5.516,5.516,5.516h0a.569.569,0,0,0,.8,0l2.606-2.606a.569.569,0,0,0,0-.8Z" transform="translate(-2.571 -1.928)" fill="#8c74fb"/>
</svg>
