<svg xmlns="http://www.w3.org/2000/svg" width="40" height="40" viewBox="0 0 40 40">
  <g id="ic_DeleteAccount" transform="translate(-29 -543)">
    <g id="Rectangle_260" data-name="Rectangle 260" transform="translate(29 543)" fill="#fff" stroke="#707070" stroke-width="1" opacity="0">
      <rect width="40" height="40" stroke="none"/>
      <rect x="0.5" y="0.5" width="39" height="39" fill="none"/>
    </g>
    <g id="trash" transform="translate(34.486 547.983)">
      <path id="Path_2979" data-name="Path 2979" d="M25.777,5.006H21.9A6.268,6.268,0,0,0,15.766,0h-2.5A6.268,6.268,0,0,0,7.131,5.006H3.251a1.251,1.251,0,1,0,0,2.5H4.5V23.777a6.265,6.265,0,0,0,6.257,6.257h7.509a6.265,6.265,0,0,0,6.257-6.257V7.509h1.251a1.251,1.251,0,0,0,0-2.5ZM13.263,2.5h2.5a3.762,3.762,0,0,1,3.54,2.5H9.723a3.762,3.762,0,0,1,3.54-2.5Zm8.76,21.274a3.754,3.754,0,0,1-3.754,3.754H10.76a3.754,3.754,0,0,1-3.754-3.754V7.509H22.023Z"/>
      <path id="Path_2980" data-name="Path 2980" d="M10.251,20.011A1.251,1.251,0,0,0,11.5,18.76V11.251a1.251,1.251,0,0,0-2.5,0V18.76A1.251,1.251,0,0,0,10.251,20.011Z" transform="translate(1.76 2.514)"/>
      <path id="Path_2981" data-name="Path 2981" d="M14.251,20.011A1.251,1.251,0,0,0,15.5,18.76V11.251a1.251,1.251,0,0,0-2.5,0V18.76A1.251,1.251,0,0,0,14.251,20.011Z" transform="translate(2.766 2.514)"/>
    </g>
  </g>
</svg>
