<svg xmlns="http://www.w3.org/2000/svg" width="45" height="45" viewBox="0 0 45 45">
  <g id="ic_explore_unselected" transform="translate(-0.071 0)">
    <g id="Rectangle_144" data-name="Rectangle 144" transform="translate(0.071 0)" fill="#fff" stroke="#707070" stroke-width="1" opacity="0">
      <rect width="45" height="45" stroke="none"/>
      <rect x="0.5" y="0.5" width="44" height="44" fill="none"/>
    </g>
    <g id="Group_359" data-name="Group 359" transform="translate(5.958 5.257)">
      <path id="Path_918" data-name="Path 918" d="M-860.094,1076.522a16.836,16.836,0,0,1,16.871,16.843,16.793,16.793,0,0,1-16.979,16.8,16.764,16.764,0,0,1-16.678-16.757A16.81,16.81,0,0,1-860.094,1076.522Zm-.031,31.252a14.433,14.433,0,0,0,14.5-14.39,14.442,14.442,0,0,0-14.281-14.458,14.431,14.431,0,0,0-14.574,14.315A14.429,14.429,0,0,0-860.125,1107.774Z" transform="translate(876.88 -1076.522)" fill="#fff"/>
      <path id="Path_919" data-name="Path 919" d="M-779.661,1157.4a3.827,3.827,0,0,1-.188.523c-1.654,3.323-3.307,6.647-4.986,9.958a1.751,1.751,0,0,1-.718.723c-3.32,1.689-6.654,3.353-9.985,5.02a1.216,1.216,0,0,1-1.485-.2,1.205,1.205,0,0,1-.173-1.456c1.66-3.321,3.316-6.643,5-9.953a1.752,1.752,0,0,1,.716-.724q5-2.545,10.016-5.04A1.208,1.208,0,0,1-779.661,1157.4Zm-13.8,12.479c.172-.071.24-.094.3-.126,2.024-1.009,4.049-2.015,6.067-3.035a.921.921,0,0,0,.368-.392q1.494-2.961,2.966-5.932c.047-.1.086-.195.155-.355-.127.049-.193.069-.255.1-2.035,1.014-4.071,2.025-6.1,3.051a.923.923,0,0,0-.361.4c-.7,1.37-1.378,2.747-2.064,4.121Z" transform="translate(805.34 -1148.118)" fill="#fff"/>
    </g>
  </g>
</svg>
