<svg width="45" height="45" viewBox="0 0 45 45" fill="none" xmlns="http://www.w3.org/2000/svg">
<g clip-path="url(#clip0_31_40)">
<path d="M22.673 5.25699C24.8875 5.25239 27.0811 5.68475 29.1282 6.52921C31.1753 7.37368 33.0358 8.61369 34.6029 10.1783C36.1701 11.7428 37.4132 13.6012 38.2611 15.6469C39.1089 17.6926 39.5449 19.8855 39.544 22.1C39.545 24.3216 39.1053 26.5214 38.2501 28.5718C37.395 30.6223 36.1416 32.4826 34.5623 34.0452C32.9831 35.6078 31.1095 36.8415 29.0501 37.6748C26.9907 38.5082 24.7864 38.9247 22.565 38.9001C18.135 38.8773 13.8941 37.1021 10.7691 33.9622C7.64398 30.8223 5.88877 26.573 5.88698 22.143C5.87698 19.9311 6.30361 17.739 7.14241 15.6923C7.98122 13.6456 9.2157 11.7846 10.7751 10.2159C12.3345 8.64716 14.1882 7.40164 16.2299 6.5507C18.2716 5.69975 20.4611 5.26013 22.673 5.25699ZM22.642 36.5091C24.5394 36.5179 26.4199 36.1524 28.1759 35.4338C29.932 34.7151 31.529 33.6571 32.8758 32.3206C34.2226 30.984 35.2926 29.3951 36.0246 27.6446C36.7567 25.8941 37.1364 24.0165 37.142 22.1191C37.1464 18.3138 35.6489 14.6604 32.9748 11.9532C30.3006 9.24589 26.666 7.70347 22.861 7.66105C20.9636 7.64218 19.0811 7.99766 17.3213 8.70719C15.5615 9.41672 13.9589 10.4663 12.6052 11.7959C11.2515 13.1256 10.1733 14.7091 9.43233 16.456C8.69136 18.2028 8.30217 20.0786 8.28701 21.976C8.27331 23.8734 8.63392 25.7548 9.34829 27.5126C10.0626 29.2704 11.1167 30.8701 12.4501 32.22C13.7835 33.5699 15.37 34.6436 17.1189 35.3796C18.8677 36.1155 20.7446 36.4994 22.642 36.5091Z" fill="#8C74FB"/>
<path fill-rule="evenodd" clip-rule="evenodd" d="M12.5 33L9 28L7.5 21L10.5 13.5L16 8.5L22.5 7L30 8.5L35 13.5L37.5 20.5L37 27.5L33.5 33L27.5 36.5L20.5 37L15 35L12.5 33ZM31.378 15.0619C31.4532 14.8923 31.5161 14.7176 31.566 14.5389C31.5842 14.3196 31.5422 14.0995 31.4445 13.9023C31.3467 13.7052 31.1969 13.5384 31.0113 13.4202C30.8258 13.3019 30.6114 13.2365 30.3914 13.2312C30.1713 13.2259 29.9541 13.2807 29.763 13.3899C26.419 15.0532 23.0803 16.7333 19.747 18.4299C19.4419 18.595 19.1927 18.847 19.031 19.1539C17.5439 22.077 16.0786 25.0094 14.6131 27.9422C14.4191 28.3304 14.2251 28.7187 14.031 29.1069C13.8957 29.3349 13.8393 29.601 13.8705 29.8642C13.9018 30.1275 14.019 30.373 14.204 30.5629C14.3936 30.7572 14.6429 30.8826 14.912 30.9188C15.1812 30.9551 15.4546 30.9002 15.689 30.7629C16.0998 30.5573 16.5107 30.3518 16.9216 30.1462C19.8422 28.6851 22.7635 27.2236 25.674 25.7429C25.9797 25.5784 26.2296 25.3267 26.392 25.0199C27.9979 21.853 29.5801 18.6742 31.1621 15.4957L31.378 15.0619ZM17.9107 26.9593C17.8722 26.9747 17.8253 26.9935 17.766 27.0179L18.842 24.85C19.0283 24.4767 19.2141 24.1032 19.3999 23.7296C19.898 22.7282 20.3962 21.7267 20.906 20.7289C20.9839 20.5626 21.1095 20.4233 21.267 20.3288C22.966 19.4697 24.67 18.6211 26.3741 17.7725C26.7051 17.6077 27.0361 17.4428 27.367 17.2779C27.4078 17.2575 27.4504 17.2418 27.5109 17.2195C27.5424 17.2079 27.5786 17.1946 27.622 17.1778C27.603 17.2219 27.5863 17.261 27.5711 17.2966C27.5309 17.3905 27.501 17.4605 27.467 17.5329C26.4856 19.5136 25.497 21.491 24.501 23.465C24.42 23.6293 24.2919 23.7658 24.133 23.8569C22.4498 24.7077 20.7617 25.5488 19.0734 26.3899C18.7376 26.5572 18.4018 26.7246 18.066 26.892C18.0267 26.9129 17.9839 26.93 17.9107 26.9593Z" fill="#8C74FB"/>
</g>
<defs>
<clipPath id="clip0_31_40">
<rect width="45" height="45" fill="white"/>
</clipPath>
</defs>
</svg>
