<svg xmlns="http://www.w3.org/2000/svg" width="24" height="24" viewBox="0 0 24 24">
  <g id="icn_Edit" transform="translate(0.457 0)">
    <g id="Rectangle_245" data-name="Rectangle 245" transform="translate(-0.457 0)" fill="#fff" stroke="#707070" stroke-width="1" opacity="0">
      <rect width="24" height="24" stroke="none"/>
      <rect x="0.5" y="0.5" width="23" height="23" fill="none"/>
    </g>
    <path id="Icon_awesome-edit" data-name="Icon awesome-edit" d="M11.314,2.342l2.535,2.535a.275.275,0,0,1,0,.388L7.712,11.4,5.1,11.692a.547.547,0,0,1-.6-.6L4.789,8.48l6.138-6.138A.275.275,0,0,1,11.314,2.342ZM15.867,1.7,14.5.327a1.1,1.1,0,0,0-1.551,0l-.995.995a.275.275,0,0,0,0,.388l2.535,2.535a.275.275,0,0,0,.388,0l.995-.995a1.1,1.1,0,0,0,0-1.551ZM10.792,9.734v2.861H1.8V3.6H8.257A.346.346,0,0,0,8.5,3.5L9.62,2.379A.337.337,0,0,0,9.381,1.8H1.349A1.349,1.349,0,0,0,0,3.152v9.892a1.349,1.349,0,0,0,1.349,1.349h9.892a1.349,1.349,0,0,0,1.349-1.349V8.609a.338.338,0,0,0-.576-.239L10.89,9.495A.346.346,0,0,0,10.792,9.734Z" transform="translate(4.268 4.725)"/>
  </g>
</svg>
