<svg xmlns="http://www.w3.org/2000/svg" width="40" height="40" viewBox="0 0 40 40">
  <g id="ic_facebook" transform="translate(-187 -312)">
    <rect id="Rectangle_151" data-name="Rectangle 151" width="40" height="40" transform="translate(187 312)" fill="#fff" opacity="0"/>
    <path id="Path_2988" data-name="Path 2988" d="M810.889,406.7H799.52c-.052-.1-.155-.062-.234-.082a4.034,4.034,0,0,1-3.141-3.142c-.02-.079.017-.182-.082-.234V380.152c.092-.044.059-.136.075-.206a4.038,4.038,0,0,1,4.034-3.249q10.9-.006,21.792,0a4.112,4.112,0,0,1,1.351.216,4.035,4.035,0,0,1,2.751,3.944q0,9.27,0,18.541c0,1.113.014,2.226-.005,3.339a4.034,4.034,0,0,1-3.1,3.854c-.136.033-.292,0-.409.11h-6.973c0-.117.01-.234.01-.351.009-3.34.021-6.679.017-10.019,0-.3.086-.366.373-.361,1.064.018,2.129.009,3.193.006a.7.7,0,0,0,.809-.719c.121-1.017.236-2.035.362-3.052.09-.725-.137-.992-.866-.993h-3.632c-.122,0-.263.034-.258-.174.026-1.122-.054-2.246.054-3.367a1.768,1.768,0,0,1,.227-.72,1.724,1.724,0,0,1,1.535-.806c.672-.038,1.347-.019,2.02-.029.561-.008.806-.247.809-.8q.009-1.318,0-2.637c0-.547-.241-.791-.785-.791-1.1,0-2.208-.043-3.309.028a5.3,5.3,0,0,0-5.188,5.359c-.074,1.219-.025,2.441-.027,3.661,0,.216-.057.286-.28.283-.791-.013-1.582-.009-2.373,0-.548,0-.784.243-.784.791q0,1.582.008,3.164c0,.561.246.806.8.808.771,0,1.543.012,2.314-.006.265-.006.339.063.337.334-.018,3.359-.022,6.718-.031,10.077C810.914,406.486,810.9,406.592,810.889,406.7Z" transform="translate(-604.063 -59.694)" fill="#475993"/>
  </g>
</svg>
