<svg xmlns="http://www.w3.org/2000/svg" width="40" height="40" viewBox="0 0 40 40">
  <g id="ic_google" transform="translate(-2461.482 -1897.483)">
    <g id="Rectangle_148" data-name="Rectangle 148" transform="translate(2461.482 1897.483)" fill="#fff" stroke="#707070" stroke-width="1" opacity="0">
      <rect width="40" height="40" stroke="none"/>
      <rect x="0.5" y="0.5" width="39" height="39" fill="none"/>
    </g>
    <g id="Group_25094" data-name="Group 25094" transform="translate(1869.41 1584.641)">
      <path id="Path_2982" data-name="Path 2982" d="M801.225,486.481a10.42,10.42,0,0,0,2.262-1.879,9.294,9.294,0,0,0,1.578-2.513.308.308,0,0,0,.049-.243H798.5c-.85,0-1.208-.36-1.208-1.211q0-1.769,0-3.538a1,1,0,0,1,1.123-1.118q5.961,0,11.922,0a1.029,1.029,0,0,1,1.168.972,3.065,3.065,0,0,0,.137.759v2.164c-.081.04-.052.117-.059.18-.045.357-.073.717-.134,1.071a14.447,14.447,0,0,1-3.753,7.611,14.2,14.2,0,0,1-3.547,2.787c-.061-.1-.123-.2-.182-.3Z" transform="translate(-184.576 -145.747)" fill="#177ee5"/>
      <path id="Path_2983" data-name="Path 2983" d="M597.072,419.974a4.367,4.367,0,0,0,.171-1.046,14.894,14.894,0,0,1,1.781-5.089.914.914,0,0,1,.09-.112l5.043,2.914a10.641,10.641,0,0,0-.986,2.542,8.977,8.977,0,0,0,.868,6.325c.045.085.08.174.12.262l-5.042,2.909a.628.628,0,0,1-.074-.087,14.8,14.8,0,0,1-1.8-5.115,4.373,4.373,0,0,0-.171-1.046Z" transform="translate(0 -88.362)" fill="#fed401"/>
      <path id="Path_2984" data-name="Path 2984" d="M623.216,570.718l5.042-2.909a11.052,11.052,0,0,0,1.706,2.1,9.113,9.113,0,0,0,6.064,2.451c.049,0,.1.006.146.01q0,2.923,0,5.846h-1.23a2.5,2.5,0,0,0-.786-.13,14.929,14.929,0,0,1-9.184-4.9A11.652,11.652,0,0,1,623.216,570.718Z" transform="translate(-24.101 -230.402)" fill="#13b247"/>
      <path id="Path_2985" data-name="Path 2985" d="M796.507,615.414a7.939,7.939,0,0,1-1.669.861,14.2,14.2,0,0,1-4.547,1.117c-.047,0-.1,0-.119.057H789q0-2.923,0-5.846a10.5,10.5,0,0,0,3.154-.586c.49-.184.944-.44,1.423-.645l2.748,4.743C796.384,615.216,796.446,615.315,796.507,615.414Z" transform="translate(-176.928 -269.638)" fill="#10993e"/>
      <path id="Path_2986" data-name="Path 2986" d="M628.229,328.279l-5.043-2.914a12.438,12.438,0,0,1,2.055-2.787,14.838,14.838,0,0,1,8.459-4.509,12.083,12.083,0,0,1,2.445-.19q0,2.918,0,5.836a9.2,9.2,0,0,0-7.767,4.352C628.333,328.141,628.279,328.209,628.229,328.279Z" transform="translate(-24.073)" fill="#fe4b26"/>
      <path id="Path_2987" data-name="Path 2987" d="M789,323.755q0-2.918,0-5.836a14.334,14.334,0,0,1,6.138,1.3,14.9,14.9,0,0,1,3.612,2.291.989.989,0,0,1,.08,1.572q-1.329,1.339-2.671,2.665a.964.964,0,0,1-1.393.081,9.216,9.216,0,0,0-4.284-1.933C789.995,323.813,789.5,323.819,789,323.755Z" transform="translate(-176.932 -0.04)" fill="#d83f22"/>
    </g>
  </g>
</svg>
