<svg xmlns="http://www.w3.org/2000/svg" width="40" height="40" viewBox="0 0 40 40">
  <g id="ic_HelpCenter" transform="translate(-30 -535)">
    <g id="Rectangle_276" data-name="Rectangle 276" transform="translate(30 535)" fill="#fff" stroke="#707070" stroke-width="1" opacity="0">
      <rect width="40" height="40" stroke="none"/>
      <rect x="0.5" y="0.5" width="39" height="39" fill="none"/>
    </g>
    <g id="Group_805" data-name="Group 805" transform="translate(717.361 186.055)">
      <path id="Path_997" data-name="Path 997" d="M-682.362,369.979v-1.886c.017-.085.038-.17.05-.256.1-.688.168-1.384.308-2.064a15.075,15.075,0,0,1,12.078-11.593c.559-.091,1.122-.156,1.683-.233h1.883c.076.016.15.037.227.049.687.1,1.382.165,2.061.307a15.083,15.083,0,0,1,11.829,14.4,14.842,14.842,0,0,1-3.69,10.227,14.7,14.7,0,0,1-8.773,4.974c-.548.1-1.1.154-1.654.229h-1.883a1.251,1.251,0,0,0-.2-.047,14.506,14.506,0,0,1-7.144-2.445,14.866,14.866,0,0,1-6.545-9.969C-682.231,371.108-682.285,370.541-682.362,369.979Zm2.108-.975a12.972,12.972,0,0,0,12.929,13.01,12.968,12.968,0,0,0,12.977-12.933,12.968,12.968,0,0,0-12.914-13.025A12.971,12.971,0,0,0-680.254,369Z" stroke="#000" stroke-width="1"/>
      <path id="Path_998" data-name="Path 998" d="M-539.162,449.577a5.794,5.794,0,0,1,2.575.491,3.063,3.063,0,0,1,1.444,4.422,6.388,6.388,0,0,1-1.674,1.914c-.175.142-.349.286-.514.439a2.132,2.132,0,0,0-.694,1.54c-.007.2,0,.393-.011.589a.708.708,0,0,1-.538.72,1.268,1.268,0,0,1-.2.052c-1.1.19-1.494-.136-1.517-1.247a3.706,3.706,0,0,1,1.491-3.2c.334-.256.664-.522.971-.809a1.752,1.752,0,0,0,.62-1.259,1.182,1.182,0,0,0-.674-1.148,2.249,2.249,0,0,0-2.913.7c-.418.6-.812.733-1.392.466a1.13,1.13,0,0,1-.58-1.442,2.941,2.941,0,0,1,1.807-1.849A4.731,4.731,0,0,1-539.162,449.577Z" transform="translate(-128.561 -88.116)"/>
      <path id="Path_999" data-name="Path 999" d="M-512.484,598.453a1.54,1.54,0,0,1-1.5,1.533,1.525,1.525,0,0,1-1.515-1.516,1.513,1.513,0,0,1,1.514-1.542A1.527,1.527,0,0,1-512.484,598.453Z" transform="translate(-153.743 -223.885)"/>
    </g>
  </g>
</svg>
