<svg xmlns="http://www.w3.org/2000/svg" width="30" height="30" viewBox="0 0 30 30">
  <g id="icn_Title" opacity="0.5">
    <g id="Rectangle_269" data-name="Rectangle 269" fill="#fff" stroke="#707070" stroke-width="1" opacity="0">
      <rect width="30" height="30" stroke="none"/>
      <rect x="0.5" y="0.5" width="29" height="29" fill="none"/>
    </g>
    <path id="Icon_awesome-hands-helping" data-name="Icon awesome-hands-helping" d="M18.591,7.315H12.8V9.449a2.743,2.743,0,1,1-5.486,0V4.816L4.841,6.3A2.433,2.433,0,0,0,3.657,8.39v1.8L.609,11.952a1.216,1.216,0,0,0-.446,1.665L3.211,18.9a1.219,1.219,0,0,0,1.665.446l3.939-2.274h5.2a2.44,2.44,0,0,0,2.438-2.438h.61a1.218,1.218,0,0,0,1.219-1.219V10.973h.3a.912.912,0,0,0,.914-.914V8.23A.912.912,0,0,0,18.591,7.315ZM24.217,5.89,21.17.61A1.219,1.219,0,0,0,19.5.165L15.566,2.439H11.672a2.457,2.457,0,0,0-1.291.37L9.1,3.6a1.211,1.211,0,0,0-.571,1.032V9.449a1.524,1.524,0,0,0,3.048,0V6.1h7.01A2.135,2.135,0,0,1,20.724,8.23V9.315l3.048-1.76a1.22,1.22,0,0,0,.446-1.665Z" transform="translate(2.81 5.246)"/>
  </g>
</svg>
