<svg xmlns="http://www.w3.org/2000/svg" width="30" height="30" viewBox="0 0 30 30">
  <g id="ic_hide_password" transform="translate(-326.877 -522.877)" opacity="0.5">
    <g id="Rectangle_155" data-name="Rectangle 155" transform="translate(326.877 522.877)" fill="#fff" stroke="#707070" stroke-width="1" opacity="0">
      <rect width="30" height="30" stroke="none"/>
      <rect x="0.5" y="0.5" width="29" height="29" fill="none"/>
    </g>
    <path id="Subtraction_1" data-name="Subtraction 1" d="M7242.034,12226.8a12.013,12.013,0,0,1-4.576-.9l1.736-1.736a5.58,5.58,0,0,0,7.643-7.643l2.3-2.3a12.9,12.9,0,0,1,3.921,4.573,1.245,1.245,0,0,1,0,1.13A12.4,12.4,0,0,1,7242.034,12226.8Zm-7.283-2.434h0a12.92,12.92,0,0,1-3.74-4.44,1.264,1.264,0,0,1,0-1.13,12.409,12.409,0,0,1,11.023-6.874,12.034,12.034,0,0,1,4.35.81l-1.712,1.712a5.581,5.581,0,0,0-7.554,7.557l-2.366,2.366Zm7.292-1.3a3.691,3.691,0,0,1-1.452-.3l4.867-4.867q.056.133.1.255a3.71,3.71,0,0,1-3.513,4.908Zm-3.5-2.486v0a3.689,3.689,0,0,1-.078-2.2,1.851,1.851,0,0,0,2.409-.182,1.863,1.863,0,0,0,.184-2.408,3.638,3.638,0,0,1,.979-.147h.008a3.739,3.739,0,0,1,1.224.208l-4.724,4.726Z" transform="translate(-6900 -11681.047)"/>
    <rect id="Rectangle_530" data-name="Rectangle 530" width="2" height="26" rx="1" transform="translate(349.677 528.356) rotate(45)"/>
  </g>
</svg>
