<svg xmlns="http://www.w3.org/2000/svg" width="40" height="40" viewBox="0 0 40 40">
  <g id="icn_Logout" transform="translate(-29 -543)">
    <g id="Rectangle_260" data-name="Rectangle 260" transform="translate(29 543)" fill="#fff" stroke="#707070" stroke-width="1" opacity="0">
      <rect width="40" height="40" stroke="none"/>
      <rect x="0.5" y="0.5" width="39" height="39" fill="none"/>
    </g>
    <g id="Group_628" data-name="Group 628" transform="translate(132.946 5330.096)">
      <path id="Path_973" data-name="Path 973" d="M-73.512-4737.327a10.582,10.582,0,0,0-3.578-8.11,1.379,1.379,0,0,1-.528-1.455,1.281,1.281,0,0,1,2.094-.634,12.713,12.713,0,0,1,2.867,3.447,13.115,13.115,0,0,1-8,19.187,12.9,12.9,0,0,1-14.451-6.049,12.767,12.767,0,0,1,.831-14.482,15.329,15.329,0,0,1,1.854-2.008,1.264,1.264,0,0,1,1.851.047,1.3,1.3,0,0,1-.113,1.877,10.544,10.544,0,0,0-2.815,3.885,10.458,10.458,0,0,0,7.824,14.381,10.355,10.355,0,0,0,12-8.531C-73.588-4736.36-73.551-4736.96-73.512-4737.327Z" transform="translate(0 -29.658)" stroke="#000" stroke-width="0.25"/>
      <path id="Path_974" data-name="Path 974" d="M50.3-4773.557c0,1.726.009,3.451,0,5.177a1.287,1.287,0,0,1-1.713,1.255,1.269,1.269,0,0,1-.868-1.139c-.015-.313-.008-.629-.008-.943,0-3.146,0-6.293.007-9.439a1.939,1.939,0,0,1,.172-.817,1.25,1.25,0,0,1,1.422-.628,1.278,1.278,0,0,1,.987,1.268C50.3-4777.068,50.3-4775.312,50.3-4773.557Z" transform="translate(-132.925)" stroke="#000" stroke-width="0.25"/>
    </g>
  </g>
</svg>
