<svg width="30" height="28" viewBox="0 0 30 28" fill="none" xmlns="http://www.w3.org/2000/svg">
<g clip-path="url(#clip0_28_61)">
<path d="M20.84 25.2159H6.87201C6.00905 25.2148 5.18173 24.8715 4.57153 24.2613C3.96133 23.6511 3.61806 22.824 3.617 21.961V15.126C3.6178 14.263 3.96097 13.4355 4.57123 12.8253C5.18149 12.215 6.00897 11.872 6.87201 11.8712H8.95697L12.518 3.85602C12.6201 3.62572 12.787 3.43026 12.9982 3.29303C13.2095 3.1558 13.4561 3.08276 13.708 3.08307C14.8297 3.08439 15.9051 3.53061 16.6983 4.32379C17.4915 5.11697 17.9376 6.1923 17.939 7.31403V9.91412H22.164C22.3353 9.91265 22.5065 9.92434 22.676 9.94977C23.0987 10.013 23.5046 10.1598 23.8704 10.3809C24.2362 10.602 24.5545 10.893 24.807 11.2379C25.0627 11.5812 25.2474 11.9723 25.3504 12.3878C25.4534 12.8033 25.4726 13.2348 25.407 13.6578L24.059 22.4488C23.9403 23.218 23.5507 23.9195 22.9605 24.4268C22.3703 24.9342 21.6183 25.214 20.84 25.2159ZM11.105 22.6158H20.818C20.9762 22.616 21.1294 22.5608 21.251 22.4595C21.3725 22.3583 21.4546 22.2177 21.483 22.0621L22.832 13.2701C22.857 13.1005 22.8139 12.9279 22.712 12.7901C22.6614 12.7211 22.5976 12.6628 22.5243 12.6187C22.451 12.5746 22.3696 12.5452 22.285 12.5328L16.638 12.525C16.2932 12.525 15.9625 12.3879 15.7188 12.1441C15.475 11.9003 15.338 11.5699 15.338 11.2252V7.31989C15.338 7.02399 15.2573 6.73405 15.1047 6.48053C14.9522 6.22701 14.7334 6.01951 14.472 5.88092L11.106 13.4561L11.105 22.6158ZM6.87299 14.4771C6.70049 14.4776 6.53524 14.5461 6.41327 14.668C6.2913 14.79 6.22251 14.9555 6.22198 15.128V21.963C6.22225 22.1356 6.2909 22.3012 6.4129 22.4234C6.5349 22.5456 6.70032 22.6143 6.87299 22.6148H8.50098V14.4761L6.87299 14.4771Z" fill="#8C74FB"/>
<path d="M9.77802 23.26V12.717L13.689 4.21698L16.58 5.86098V11.361L23.156 11.644L24.12 13.571L22.306 23.771L9.77802 23.26Z" fill="#8C74FB"/>
</g>
<defs>
<clipPath id="clip0_28_61">
<rect width="30" height="28" fill="white"/>
</clipPath>
</defs>
</svg>
