<svg xmlns="http://www.w3.org/2000/svg" width="30" height="28" viewBox="0 0 30 28">
  <g id="ic_liked" transform="translate(0 0)">
    <g id="Rectangle_176" data-name="Rectangle 176" transform="translate(0 0)" fill="#fff" stroke="#707070" stroke-width="1" opacity="0">
      <rect width="30" height="28" stroke="none"/>
      <rect x="0.5" y="0.5" width="29" height="27" fill="none"/>
    </g>
    <path id="Path_975" data-name="Path 975" d="M822.1-5059.766H808.132a3.259,3.259,0,0,1-3.255-3.255v-6.835a3.258,3.258,0,0,1,3.255-3.255h2.085l3.561-8.015a1.3,1.3,0,0,1,1.19-.773,4.236,4.236,0,0,1,4.231,4.231v2.6h4.225a3.261,3.261,0,0,1,.512.036,3.234,3.234,0,0,1,2.131,1.288,3.224,3.224,0,0,1,.6,2.42l-1.348,8.791A3.265,3.265,0,0,1,822.1-5059.766Zm-9.735-2.6h9.713a.675.675,0,0,0,.665-.554l1.349-8.792a.648.648,0,0,0-.12-.48.645.645,0,0,0-.427-.257l-5.647-.008a1.3,1.3,0,0,1-1.3-1.3v-3.905a1.629,1.629,0,0,0-.866-1.439l-3.366,7.575Zm-4.232-8.139a.653.653,0,0,0-.651.651v6.835a.653.653,0,0,0,.651.652h1.628v-8.139Z" transform="translate(-801.26 5084.982)"/>
  </g>
</svg>
