<svg xmlns="http://www.w3.org/2000/svg" width="40" height="40" viewBox="0 0 40 40">
  <g id="icn_More" transform="translate(360 -4247)">
    <g id="Rectangle_511" data-name="Rectangle 511" transform="translate(-360 4247)" fill="#fff" stroke="#707070" stroke-width="1" opacity="0">
      <rect width="40" height="40" stroke="none"/>
      <rect x="0.5" y="0.5" width="39" height="39" fill="none"/>
    </g>
    <g id="Icon_feather-more-horizontal" data-name="Icon feather-more-horizontal" transform="translate(-357.5 4249)">
      <path id="Path_2599" data-name="Path 2599" d="M19.5,18A1.5,1.5,0,1,1,18,16.5,1.5,1.5,0,0,1,19.5,18Z" fill="none" stroke="#000" stroke-linecap="round" stroke-linejoin="round" stroke-width="3"/>
      <path id="Path_2600" data-name="Path 2600" d="M30,18a1.5,1.5,0,1,1-1.5-1.5A1.5,1.5,0,0,1,30,18Z" fill="none" stroke="#000" stroke-linecap="round" stroke-linejoin="round" stroke-width="3"/>
      <path id="Path_2601" data-name="Path 2601" d="M9,18a1.5,1.5,0,1,1-1.5-1.5A1.5,1.5,0,0,1,9,18Z" fill="none" stroke="#000" stroke-linecap="round" stroke-linejoin="round" stroke-width="3"/>
    </g>
  </g>
</svg>
