<svg xmlns="http://www.w3.org/2000/svg" width="40" height="40" viewBox="0 0 40 40">
  <g id="icn_Navigator" transform="translate(-78 -456)">
    <g id="Rectangle_249" data-name="Rectangle 249" transform="translate(78 456)" fill="#fff" stroke="#707070" stroke-width="1" opacity="0">
      <rect width="40" height="40" stroke="none"/>
      <rect x="0.5" y="0.5" width="39" height="39" fill="none"/>
    </g>
    <g id="Group_605" data-name="Group 605" transform="translate(818.135 -2229.56)">
      <path id="Path_961" data-name="Path 961" d="M-733.332,2698.349q0-2.3,0-4.607a1.231,1.231,0,0,1,1.366-1.377h9.271a1.227,1.227,0,0,1,1.363,1.352q0,4.649,0,9.3a1.223,1.223,0,0,1-1.338,1.349q-4.664,0-9.327,0a1.225,1.225,0,0,1-1.335-1.352Q-733.334,2700.681-733.332,2698.349Zm2.416,3.593h7.161v-7.16h-7.161Z" transform="translate(0 -0.001)"/>
      <path id="Path_962" data-name="Path 962" d="M-535.66,2704.363h-4.608a1.233,1.233,0,0,1-1.377-1.367q0-4.635,0-9.27a1.226,1.226,0,0,1,1.352-1.362q4.65,0,9.3,0a1.223,1.223,0,0,1,1.349,1.337q0,4.663,0,9.327a1.223,1.223,0,0,1-1.352,1.335Q-533.328,2704.366-535.66,2704.363Zm3.6-9.577h-7.161v7.16h7.161Z" transform="translate(-177.296)"/>
      <path id="Path_963" data-name="Path 963" d="M-733.328,2890.01q0-2.29,0-4.579a1.241,1.241,0,0,1,1.392-1.407h9.215a1.239,1.239,0,0,1,1.394,1.406q0,4.593,0,9.186a1.245,1.245,0,0,1-1.421,1.408h-9.159a1.251,1.251,0,0,1-1.422-1.435Q-733.328,2892.3-733.328,2890.01Zm9.578,3.6v-7.159h-7.16v7.159Z" transform="translate(-0.004 -177.271)"/>
      <path id="Path_964" data-name="Path 964" d="M-541.6,2890.2a6.009,6.009,0,0,1,5.789-6.156,5.983,5.983,0,0,1,6.194,5.8,5.966,5.966,0,0,1-5.81,6.183A6,6,0,0,1-541.6,2890.2Zm6.008-3.76a3.6,3.6,0,0,0-3.609,3.578,3.6,3.6,0,0,0,3.6,3.614,3.6,3.6,0,0,0,3.595-3.62A3.6,3.6,0,0,0-535.588,2886.441Z" transform="translate(-177.34 -177.286)"/>
    </g>
  </g>
</svg>
