<svg xmlns="http://www.w3.org/2000/svg" width="40" height="40" viewBox="0 0 40 40">
  <g id="icn_News" transform="translate(-96 -455)">
    <g id="Rectangle_258" data-name="Rectangle 258" transform="translate(96 455)" fill="#fff" stroke="#707070" stroke-width="1" opacity="0">
      <rect width="40" height="40" stroke="none"/>
      <rect x="0.5" y="0.5" width="39" height="39" fill="none"/>
    </g>
    <path id="blog-text" d="M21.5,2H5.657A5.659,5.659,0,0,0,0,7.657V18.97a5.659,5.659,0,0,0,5.657,5.657H21.5a5.659,5.659,0,0,0,5.657-5.657V7.657A5.659,5.659,0,0,0,21.5,2ZM5.657,4.263H21.5A3.4,3.4,0,0,1,24.89,7.657H2.263A3.4,3.4,0,0,1,5.657,4.263ZM21.5,22.364H5.657A3.4,3.4,0,0,1,2.263,18.97V9.919H24.89V18.97A3.4,3.4,0,0,1,21.5,22.364ZM11.313,13.313a1.135,1.135,0,0,1-1.131,1.131H9.051V18.97a1.131,1.131,0,0,1-2.263,0V14.445H5.657a1.131,1.131,0,0,1,0-2.263h4.525A1.135,1.135,0,0,1,11.313,13.313Zm11.313,0A1.135,1.135,0,0,1,21.5,14.445H14.708a1.131,1.131,0,0,1,0-2.263H21.5A1.135,1.135,0,0,1,22.627,13.313Zm0,4.525A1.135,1.135,0,0,1,21.5,18.97H14.708a1.131,1.131,0,0,1,0-2.263H21.5A1.135,1.135,0,0,1,22.627,17.839Z" transform="translate(102.424 461.687)"/>
  </g>
</svg>
