<svg xmlns="http://www.w3.org/2000/svg" width="30" height="30" viewBox="0 0 30 30">
  <g id="ic_password" transform="translate(-44.9 -575.9)" opacity="0.5">
    <g id="Rectangle_159" data-name="Rectangle 159" transform="translate(44.9 575.9)" fill="#fff" stroke="#707070" stroke-width="1" opacity="0">
      <rect width="30" height="30" stroke="none"/>
      <rect x="0.5" y="0.5" width="29" height="29" fill="none"/>
    </g>
    <path id="Icon_ionic-ios-lock" data-name="Icon ionic-ios-lock" d="M21.793,11.111H20.5V8.6a5.158,5.158,0,1,0-10.315-.07v2.579H8.9A2.155,2.155,0,0,0,6.75,13.26V23.575A2.155,2.155,0,0,0,8.9,25.724H21.793a2.155,2.155,0,0,0,2.149-2.149V13.26A2.155,2.155,0,0,0,21.793,11.111Zm-5.695,6.7v3.7a.77.77,0,0,1-.715.774.753.753,0,0,1-.79-.752V17.816a1.719,1.719,0,1,1,1.5,0Zm2.9-6.7H11.693V8.532a3.653,3.653,0,0,1,7.307,0Z" transform="translate(44.15 576.526)"/>
  </g>
</svg>
