<svg xmlns="http://www.w3.org/2000/svg" width="30" height="30" viewBox="0 0 30 30">
  <g id="icn_Title" transform="translate(-29 -273)" opacity="0.5">
    <g id="Rectangle_269" data-name="Rectangle 269" transform="translate(29 273)" fill="#fff" stroke="#707070" stroke-width="1" opacity="0">
      <rect width="30" height="30" stroke="none"/>
      <rect x="0.5" y="0.5" width="29" height="29" fill="none"/>
    </g>
    <g id="Group_759" data-name="Group 759" transform="translate(-584.019 5667.523)">
      <path id="Path_985" data-name="Path 985" d="M626.044-5372.405c.545,0,1.082-.008,1.619,0a1.161,1.161,0,0,1,1.206,1.042,1.141,1.141,0,0,1-1.093,1.285q-2.939.021-5.879,0a1.127,1.127,0,0,1-1.1-1.141,1.129,1.129,0,0,1,1.057-1.208c.491-.03.984-.012,1.476-.018.1,0,.2-.009.308-.013v-14.663h-5.222c0,.423,0,.855,0,1.288a1.147,1.147,0,0,1-.667,1.1,1.175,1.175,0,0,1-1.709-1.02c-.029-.872-.022-1.746,0-2.618a1.162,1.162,0,0,1,1.267-1.157q4.361,0,8.721,0h6.269a1.2,1.2,0,0,1,1.341,1.338c0,.771,0,1.541,0,2.312a1.167,1.167,0,0,1-1.189,1.26,1.172,1.172,0,0,1-1.193-1.258c0-.408,0-.815,0-1.245h-5.206Z"/>
      <path id="Path_986" data-name="Path 986" d="M664.443-5356.236v-8.648h-2.121c0,.127,0,.262,0,.4a1.184,1.184,0,0,1-1.2,1.2,1.175,1.175,0,0,1-1.18-1.246c0-.521-.005-1.041,0-1.56a1.149,1.149,0,0,1,1.2-1.194q4.5-.006,9,0a1.176,1.176,0,0,1,1.218,1.184c.014.547.016,1.1,0,1.643a1.17,1.17,0,0,1-1.2,1.173,1.177,1.177,0,0,1-1.18-1.193c0-.128,0-.257,0-.409h-2.112v8.649c.2,0,.4,0,.605,0a1.17,1.17,0,0,1,1.227,1.2,1.165,1.165,0,0,1-1.238,1.184q-1.8.007-3.594,0a1.173,1.173,0,0,1-1.231-1.2,1.181,1.181,0,0,1,1.219-1.184C664.044-5356.24,664.237-5356.236,664.443-5356.236Z" transform="translate(-31.936 -16.169)"/>
    </g>
  </g>
</svg>
