<svg xmlns="http://www.w3.org/2000/svg" width="30" height="30" viewBox="0 0 30 30">
  <g id="ic_Phone" transform="translate(-44.127 -173.127)" opacity="0.5">
    <g id="Rectangle_157" data-name="Rectangle 157" transform="translate(44.127 173.127)" fill="#fff" stroke="#707070" stroke-width="1" opacity="0">
      <rect width="30" height="30" stroke="none"/>
      <rect x="0.5" y="0.5" width="29" height="29" fill="none"/>
    </g>
    <path id="Icon_awesome-mobile" data-name="Icon awesome-mobile" d="M12.105,0H2.136A2.137,2.137,0,0,0,0,2.136V20.65a2.137,2.137,0,0,0,2.136,2.136h9.969a2.137,2.137,0,0,0,2.136-2.136V2.136A2.137,2.137,0,0,0,12.105,0ZM7.121,21.362a1.424,1.424,0,1,1,1.424-1.424A1.423,1.423,0,0,1,7.121,21.362Z" transform="translate(52.291 176.734)"/>
  </g>
</svg>
