<svg xmlns="http://www.w3.org/2000/svg" width="176" height="176" viewBox="0 0 176 176">
  <g id="icn_Question" transform="translate(-119 -237)">
    <g id="Rectangle_544" data-name="Rectangle 544" transform="translate(119 237)" fill="#fff" stroke="#707070" stroke-width="1" opacity="0">
      <rect width="176" height="176" stroke="none"/>
      <rect x="0.5" y="0.5" width="175" height="175" fill="none"/>
    </g>
    <path id="Path_2360" data-name="Path 2360" d="M60.222,122.956A62.966,62.966,0,0,1,12.109,19.061,63.372,63.372,0,0,1,85.641,2.448a6,6,0,1,1-4.884,10.961A51,51,0,0,0,17.216,87.752,51,51,0,0,0,111,60.023V54.782a6,6,0,0,1,12,0v5.244a63.373,63.373,0,0,1-45.137,60.382A62.178,62.178,0,0,1,60.222,122.956Z" transform="matrix(-0.574, 0.819, -0.819, -0.574, 290.559, 310.15)" fill="#d6860d"/>
    <path id="Icon_awesome-question" data-name="Icon awesome-question" d="M21.938,0C12.827,0,6.926,3.733,2.293,10.39a2.742,2.742,0,0,0,.591,3.752l4.924,3.734a2.739,2.739,0,0,0,3.8-.473c2.859-3.582,4.98-5.644,9.446-5.644,3.512,0,7.855,2.26,7.855,5.665,0,2.574-2.125,3.9-5.592,5.84-4.043,2.267-9.394,5.088-9.394,12.146v1.117a2.739,2.739,0,0,0,2.74,2.74H24.93a2.739,2.739,0,0,0,2.74-2.74v-.659c0-4.892,14.3-5.1,14.3-18.335C41.969,7.563,31.627,0,21.938,0ZM20.794,42.629A7.907,7.907,0,1,0,28.7,50.536,7.916,7.916,0,0,0,20.794,42.629Z" transform="translate(185.116 295.778)" fill="#d6860d"/>
  </g>
</svg>
