<svg width="30" height="28" viewBox="0 0 30 28" fill="none" xmlns="http://www.w3.org/2000/svg">
<g clip-path="url(#clip0_51_2)">
<path fill-rule="evenodd" clip-rule="evenodd" d="M27 25L15 4L3 25H27ZM13.2306 12.6785C13.777 12.3894 14.3903 12.2502 15.008 12.275C15.791 12.2532 16.5534 12.5281 17.1423 13.0445C17.7313 13.561 18.1034 14.2809 18.184 15.06C18.184 16.3612 17.3086 16.8659 16.6462 17.2477C16.2432 17.48 15.919 17.6669 15.919 17.96V18.06C15.9194 18.1173 15.9085 18.174 15.8868 18.227C15.8652 18.2801 15.8333 18.3282 15.793 18.3689C15.7526 18.4095 15.7046 18.4417 15.6518 18.4637C15.5989 18.4857 15.5423 18.497 15.485 18.497H14.175C14.0599 18.497 13.9495 18.4513 13.8681 18.3699C13.7867 18.2885 13.741 18.1781 13.741 18.063V17.886C13.741 16.7951 14.5484 16.3431 15.1821 15.9883C15.1979 15.9795 15.2135 15.9707 15.229 15.962C15.778 15.654 16.115 15.445 16.115 15.037C16.115 14.495 15.427 14.137 14.871 14.137C14.5647 14.1421 14.265 14.2273 14.0018 14.3841C13.7387 14.541 13.5212 14.764 13.371 15.031C13.3004 15.1191 13.1982 15.1762 13.0862 15.1902C12.9742 15.2042 12.8611 15.174 12.771 15.106L11.991 14.515C11.9017 14.4473 11.842 14.3477 11.8244 14.237C11.8069 14.1262 11.8329 14.013 11.897 13.921C12.224 13.3964 12.6841 12.9677 13.2306 12.6785ZM14.1311 19.2373C14.3371 19.0995 14.5793 19.026 14.827 19.026C15.1584 19.0266 15.4761 19.1582 15.7107 19.3923C15.9453 19.6263 16.0777 19.9437 16.079 20.275C16.0796 20.5228 16.0067 20.7651 15.8695 20.9714C15.7323 21.1777 15.5369 21.3387 15.3082 21.4339C15.0795 21.5291 14.8277 21.5543 14.5846 21.5064C14.3415 21.4584 14.1182 21.3394 13.9428 21.1644C13.7674 20.9894 13.6478 20.7663 13.5993 20.5234C13.5507 20.2805 13.5754 20.0286 13.67 19.7996C13.7647 19.5707 13.9252 19.375 14.1311 19.2373Z" fill="black"/>
</g>
<defs>
<clipPath id="clip0_51_2">
<rect width="30" height="28" fill="white"/>
</clipPath>
</defs>
</svg>
