<svg xmlns="http://www.w3.org/2000/svg" width="40" height="40" viewBox="0 0 40 40">
  <g id="icn_Settings" transform="translate(-28 -490)">
    <g id="Rectangle_259" data-name="Rectangle 259" transform="translate(28 490)" fill="#fff" stroke="#707070" stroke-width="1" opacity="0">
      <rect width="40" height="40" stroke="none"/>
      <rect x="0.5" y="0.5" width="39" height="39" fill="none"/>
    </g>
    <g id="Group_626" data-name="Group 626" transform="translate(530.798 4826.055)">
      <path id="Path_971" data-name="Path 971" d="M-467.785-4314.708c-.033.1-.07.2-.1.3a2.743,2.743,0,0,1-2.615,2.051c-.671.016-.666.018-.917.646-.137.344-.282.686-.447,1.017a.28.28,0,0,0,.066.4,2.97,2.97,0,0,1,1.033,1.69,2.653,2.653,0,0,1-.646,2.366c-.472.52-.972,1.017-1.485,1.5a2.742,2.742,0,0,1-3.857-.038c-.454-.433-.453-.43-1.03-.174-.267.118-.538.228-.812.331-.492.183-.5.18-.494.7a2.769,2.769,0,0,1-.43,1.586,2.44,2.44,0,0,1-1.869,1.225,15.141,15.141,0,0,1-2.831-.008,2.652,2.652,0,0,1-2.27-2.624c-.006-.231.056-.515-.055-.679s-.4-.174-.6-.259a5.7,5.7,0,0,1-.83-.361.484.484,0,0,0-.731.133,2.608,2.608,0,0,1-1.544.885,2.633,2.633,0,0,1-2.341-.636c-.549-.5-1.076-1.024-1.576-1.571a2.717,2.717,0,0,1,.012-3.678,5.882,5.882,0,0,1,.534-.47c-.265-.667-.492-1.257-.738-1.839-.028-.067-.159-.114-.249-.127a8.515,8.515,0,0,1-1.351-.182,2.655,2.655,0,0,1-1.829-2.5,17.8,17.8,0,0,1,.056-2.425,2.674,2.674,0,0,1,2.611-2.289c.234-.006.524.07.685-.042s.184-.411.276-.625c.146-.34.285-.684.451-1.014a.265.265,0,0,0-.069-.374,3,3,0,0,1-1.039-1.687,2.656,2.656,0,0,1,.657-2.39c.482-.524.987-1.03,1.51-1.513a2.678,2.678,0,0,1,3.756.034c.4.4.694.488,1.171.189a4.828,4.828,0,0,1,1.029-.411.254.254,0,0,0,.207-.292,4.692,4.692,0,0,1,.032-.847,2.741,2.741,0,0,1,2.158-2.274,1.358,1.358,0,0,0,.158-.059h2.7a.432.432,0,0,0,.1.05,2.73,2.73,0,0,1,2.215,2.281,4.569,4.569,0,0,1,.032.846.255.255,0,0,0,.207.291c.359.124.711.269,1.062.412.207.084.423.277.607.248s.332-.275.494-.428a2.74,2.74,0,0,1,3.812-.025c.514.479,1.013.976,1.487,1.493a2.652,2.652,0,0,1,.659,2.389,2.835,2.835,0,0,1-.865,1.527c-.336.327-.326.328-.138.743q.223.492.416,1c.181.473.176.476.681.478a2.755,2.755,0,0,1,2.678,1.721c.082.2.139.42.207.63Zm-28.247-1.372c0,.3,0,.605,0,.908a1,1,0,0,0,1.04,1.057c.4.005.8,0,1.2,0a.878.878,0,0,1,.92.7,11.17,11.17,0,0,0,1.07,2.587.873.873,0,0,1-.166,1.191c-.273.279-.556.549-.827.831a.987.987,0,0,0,0,1.462q.634.65,1.284,1.284a.99.99,0,0,0,1.463,0c.275-.263.539-.538.81-.806a.89.89,0,0,1,1.237-.179,11.174,11.174,0,0,0,2.533,1.051.9.9,0,0,1,.739.982c0,.391,0,.781,0,1.172a.989.989,0,0,0,1.021,1.015q.908.01,1.816,0a1,1,0,0,0,1.042-1.054c0-.391,0-.781,0-1.172a.885.885,0,0,1,.719-.937,11.1,11.1,0,0,0,2.56-1.06.879.879,0,0,1,1.214.17c.279.273.548.557.831.826a.986.986,0,0,0,1.441,0q.663-.642,1.305-1.3a.985.985,0,0,0,0-1.441c-.275-.291-.567-.565-.846-.853a.87.87,0,0,1-.155-1.192,11.16,11.16,0,0,0,1.061-2.56.893.893,0,0,1,.964-.723c.4,0,.8,0,1.2,0a.986.986,0,0,0,1-1.007c.009-.615.008-1.23,0-1.846a.991.991,0,0,0-1.04-1.025c-.4,0-.8,0-1.2,0a.881.881,0,0,1-.919-.706,11.229,11.229,0,0,0-1.071-2.587.87.87,0,0,1,.169-1.189c.273-.279.557-.549.826-.831a.989.989,0,0,0,0-1.463q-.634-.65-1.285-1.284a.988.988,0,0,0-1.462,0c-.275.264-.538.539-.81.806a.89.89,0,0,1-1.238.177,10.971,10.971,0,0,0-2.533-1.05.9.9,0,0,1-.737-.983c0-.391,0-.781,0-1.172a.989.989,0,0,0-1.023-1.013c-.605-.007-1.211-.005-1.817,0a.988.988,0,0,0-1.04,1.025c-.006.4,0,.8,0,1.2a.887.887,0,0,1-.72.938,11.128,11.128,0,0,0-2.56,1.061.881.881,0,0,1-1.214-.171c-.272-.267-.536-.542-.81-.806a.992.992,0,0,0-1.484,0q-.638.625-1.264,1.263a.992.992,0,0,0,0,1.483c.272.281.554.551.827.831a.874.874,0,0,1,.155,1.193,11.1,11.1,0,0,0-1.061,2.56.891.891,0,0,1-.964.724c-.4,0-.8,0-1.2,0a.987.987,0,0,0-1,1.006C-496.037-4316.685-496.032-4316.382-496.032-4316.08Z" transform="translate(0)" stroke="#000" stroke-width="0.8"/>
      <path id="Path_972" data-name="Path 972" d="M-389.372-4216.235a6.518,6.518,0,0,1,6.527-6.51,6.518,6.518,0,0,1,6.518,6.548,6.52,6.52,0,0,1-6.542,6.5A6.52,6.52,0,0,1-389.372-4216.235Zm11.288.021a4.758,4.758,0,0,0-4.755-4.774,4.757,4.757,0,0,0-4.774,4.754,4.76,4.76,0,0,0,4.755,4.775A4.759,4.759,0,0,0-378.085-4216.213Z" transform="translate(-99.938 -99.832)" stroke="#000" stroke-width="0.8"/>
    </g>
  </g>
</svg>
