<svg xmlns="http://www.w3.org/2000/svg" width="30" height="30" viewBox="0 0 30 30">
  <g id="ic_view_password" transform="translate(-326.877 -522.877)" opacity="0.5">
    <g id="Rectangle_155" data-name="Rectangle 155" transform="translate(326.877 522.877)" fill="#fff" stroke="#707070" stroke-width="1" opacity="0">
      <rect width="30" height="30" stroke="none"/>
      <rect x="0.5" y="0.5" width="29" height="29" fill="none"/>
    </g>
    <path id="Icon_awesome-eye" data-name="Icon awesome-eye" d="M22.181,11.373A12.426,12.426,0,0,0,11.158,4.5,12.428,12.428,0,0,0,.135,11.373a1.253,1.253,0,0,0,0,1.131,12.426,12.426,0,0,0,11.023,6.873A12.428,12.428,0,0,0,22.181,12.5,1.253,1.253,0,0,0,22.181,11.373ZM11.158,17.517a5.579,5.579,0,1,1,5.579-5.579A5.579,5.579,0,0,1,11.158,17.517Zm0-9.3a3.693,3.693,0,0,0-.981.147,1.854,1.854,0,0,1-2.592,2.592,3.711,3.711,0,1,0,3.572-2.739Z" transform="translate(330.877 526.377)"/>
  </g>
</svg>
