<svg xmlns="http://www.w3.org/2000/svg" width="45" height="45" viewBox="0 0 45 45">
  <g id="ic_yolo_unselected" transform="translate(0.286 0)">
    <g id="Rectangle_180" data-name="Rectangle 180" transform="translate(-0.286 0)" fill="#fff" stroke="#707070" stroke-width="1" opacity="0">
      <rect width="45" height="45" stroke="none"/>
      <rect x="0.5" y="0.5" width="44" height="44" fill="none"/>
    </g>
    <g id="Group_458" data-name="Group 458" transform="translate(8.23 5.257)">
      <g id="Group_457" data-name="Group 457">
        <path id="Path_932" data-name="Path 932" d="M-615.947-1809.869a14.645,14.645,0,0,1-8.059-2.42,14.833,14.833,0,0,1-6.069-8.246,15.848,15.848,0,0,1,1.22-11.939,29.754,29.754,0,0,1,3.33-5.046,2.329,2.329,0,0,1,2.37-.88,2.268,2.268,0,0,1,1.4.917c.193-.347.386-.691.582-1.037a5.22,5.22,0,0,0,.775-2.644,2.328,2.328,0,0,1,.691-1.7,2.456,2.456,0,0,1,1.813-.662,8.557,8.557,0,0,1,6.992,4.037,11.561,11.561,0,0,1,.86,1.471,2.2,2.2,0,0,1,.444-.251,2.407,2.407,0,0,1,2.117.165,9.994,9.994,0,0,1,3.845,4.074,20.431,20.431,0,0,1,2.353,7.463,14.45,14.45,0,0,1-2.639,10.507,14.353,14.353,0,0,1-10.137,6.068A14.55,14.55,0,0,1-615.947-1809.869Zm-7.8-25.709a26.483,26.483,0,0,0-2.792,4.281,13.159,13.159,0,0,0-1.041,10.039,12.063,12.063,0,0,0,13.183,8.693,11.849,11.849,0,0,0,8.366-5.012,11.929,11.929,0,0,0,2.168-8.675,17.606,17.606,0,0,0-2.049-6.52,7.556,7.556,0,0,0-2.621-2.935c-.083.3-.167.6-.25.895q-.069.246-.139.492l-.592,2.116-1.568-1.539a1.763,1.763,0,0,1-.483-.854,10.328,10.328,0,0,0-1.479-3.415,5.954,5.954,0,0,0-4.764-2.908,7.9,7.9,0,0,1-1.109,3.682c-.441.778-.868,1.552-1.321,2.372q-.3.542-.607,1.1l-1.429,2.574-.937-2.791q-.1-.286-.193-.571C-623.52-1834.891-623.636-1835.233-623.749-1835.578Zm.274-.346h0Zm-.412-.07Z" transform="translate(630.725 1843.526)" fill="#fff"/>
      </g>
      <path id="Path_933" data-name="Path 933" d="M-508.728-1680.074a3.7,3.7,0,0,0-.349-.7,1.027,1.027,0,0,0-1.627.088l-5.042,5.745c-.933,1.063-1.871,2.121-2.8,3.191a1.031,1.031,0,0,0,.511,1.734,1.041,1.041,0,0,0,1.064-.393q1.3-1.488,2.608-2.969,2.6-2.956,5.189-5.918A4.566,4.566,0,0,0-508.728-1680.074Z" transform="translate(528.52 1695.193)" fill="#fff"/>
      <path id="Path_934" data-name="Path 934" d="M-517.3-1681.1a1.543,1.543,0,0,0-1.534,1.552,1.548,1.548,0,0,0,1.564,1.556,1.558,1.558,0,0,0,1.539-1.554A1.554,1.554,0,0,0-517.3-1681.1Z" transform="translate(528.52 1695.154)" fill="#fff"/>
      <path id="Path_935" data-name="Path 935" d="M-435.761-1586.668a1.544,1.544,0,0,0-1.487-1.6,1.552,1.552,0,0,0-1.614,1.507,1.56,1.56,0,0,0,1.491,1.6A1.548,1.548,0,0,0-435.761-1586.668Z" transform="translate(455.469 1610.36)" fill="#fff"/>
    </g>
  </g>
</svg>
