<svg width="45" height="45" viewBox="0 0 45 45" fill="none" xmlns="http://www.w3.org/2000/svg">
<g clip-path="url(#clip0_31_26)">
<path d="M23.294 38.9139C20.4288 38.913 17.6268 38.0717 15.235 36.494C12.2974 34.5528 10.1462 31.6298 9.16599 28.2479C7.99183 24.2622 8.42998 19.9748 10.386 16.309C11.3218 14.5183 12.4375 12.8275 13.716 11.2629C13.9844 10.9037 14.3508 10.6295 14.7712 10.4734C15.1916 10.3173 15.6481 10.2859 16.086 10.3829C16.6525 10.499 17.1533 10.827 17.486 11.2999C17.679 10.9529 17.872 10.6089 18.068 10.2629C18.5585 9.46692 18.8261 8.55386 18.843 7.61902C18.837 7.30363 18.8952 6.99024 19.014 6.698C19.1327 6.40577 19.3097 6.14071 19.534 5.91895C19.7759 5.69189 20.0612 5.51613 20.3728 5.40235C20.6844 5.28857 21.0158 5.23915 21.347 5.25696C22.7547 5.30249 24.1293 5.6947 25.349 6.39893C26.5687 7.10316 27.5958 8.0976 28.339 9.29395C28.6615 9.76246 28.9489 10.2542 29.199 10.765C29.3368 10.6644 29.4857 10.5801 29.643 10.5139C29.985 10.3777 30.3537 10.3217 30.7207 10.3503C31.0877 10.379 31.4432 10.4914 31.76 10.679C33.4038 11.6426 34.7379 13.0562 35.605 14.7529C36.8629 17.0658 37.6618 19.5999 37.958 22.2159C38.4741 25.928 37.5279 29.6953 35.319 32.7229C34.1567 34.3958 32.6516 35.802 30.9038 36.8483C29.156 37.8945 27.2055 38.5568 25.182 38.791C24.556 38.8729 23.9253 38.9139 23.294 38.9139ZM15.494 13.205C14.4275 14.5386 13.4925 15.9723 12.702 17.486C11.8764 19.0085 11.3594 20.679 11.1808 22.4017C11.0021 24.1245 11.1653 25.8654 11.661 27.5249C12.4465 30.3166 14.2114 32.7318 16.6324 34.3283C19.0535 35.9247 21.9687 36.5957 24.844 36.218C26.5143 36.024 28.1241 35.4767 29.5666 34.6126C31.009 33.7484 32.251 32.5871 33.21 31.2059C35.0301 28.7047 35.8075 25.5944 35.378 22.531C35.1275 20.2447 34.4313 18.0296 33.329 16.011C32.7299 14.8183 31.8255 13.8056 30.708 13.0759C30.625 13.3759 30.541 13.676 30.458 13.971C30.412 14.135 30.3657 14.299 30.319 14.463L29.727 16.579L28.159 15.0399C27.9205 14.8067 27.753 14.5106 27.676 14.1859C27.3938 12.9674 26.8927 11.8104 26.197 10.771C25.701 9.93391 25.0074 9.23108 24.1769 8.72413C23.3463 8.21717 22.4043 7.92147 21.433 7.86292C21.3723 9.16286 20.9913 10.4277 20.324 11.5449C19.883 12.3229 19.456 13.097 19.003 13.917C18.803 14.2783 18.6007 14.645 18.396 15.017L16.967 17.5909L16.03 14.7999C15.9633 14.6093 15.899 14.419 15.837 14.229C15.721 13.892 15.605 13.55 15.492 13.205H15.494Z" fill="#8C74FB"/>
<path fill-rule="evenodd" clip-rule="evenodd" d="M16.5 34.5L12 30.5L10.5 25L11 19L14 14L15 13L16 12.5L17 16L20 10.5L21 7.5V7L23 7.5L25 8.5L27 10.5L28 13L29 15.5L30 12.5L31.5 13L32.5 14L34 17L35 19L36 24L35 30L32 33.5L28 36L23.5 37L19.5 36.5L16.5 34.5ZM27.959 19.6759C28.0997 19.8963 28.2167 20.131 28.308 20.376C28.1852 20.6494 28.0358 20.9099 27.862 21.154C26.136 23.1286 24.4063 25.1013 22.673 27.0719C21.801 28.0593 20.9316 29.0489 20.065 30.0409C19.9446 30.2023 19.7801 30.3254 19.5912 30.3952C19.4024 30.4649 19.1974 30.4784 19.001 30.434C18.8205 30.3945 18.6539 30.3072 18.5187 30.1813C18.3834 30.0554 18.2845 29.8954 18.2323 29.7182C18.18 29.5409 18.1764 29.353 18.2218 29.1739C18.2671 28.9947 18.3597 28.831 18.49 28.7C19.1173 27.9774 19.7488 27.2603 20.38 26.5435L20.3807 26.5426L20.3815 26.5418C20.6845 26.1977 20.9875 25.8536 21.29 25.5089L26.332 19.764C26.421 19.634 26.5387 19.5263 26.676 19.4491C26.8133 19.372 26.9665 19.3274 27.1238 19.3189C27.2811 19.3104 27.4382 19.3381 27.583 19.4001C27.7278 19.462 27.8565 19.5564 27.959 19.6759ZM19.736 19.311C19.5334 19.3122 19.333 19.3532 19.1463 19.4318C18.9595 19.5105 18.7901 19.6251 18.6476 19.7692C18.5052 19.9134 18.3925 20.0841 18.3161 20.2718C18.2396 20.4595 18.2009 20.6604 18.2021 20.863C18.201 21.0683 18.2407 21.2717 18.3191 21.4615C18.3974 21.6513 18.5127 21.8236 18.6582 21.9685C18.8038 22.1133 18.9767 22.2277 19.1669 22.305C19.3571 22.3823 19.5607 22.4211 19.766 22.419C20.1752 22.414 20.5661 22.2481 20.854 21.9573C21.142 21.6666 21.304 21.2742 21.305 20.8649C21.305 20.6596 21.2644 20.4563 21.1853 20.2668C21.1063 20.0773 20.9905 19.9053 20.8446 19.7608C20.6987 19.6163 20.5256 19.5021 20.3354 19.4249C20.1451 19.3477 19.9414 19.309 19.736 19.311ZM28.1283 28.3539C28.199 28.5441 28.2315 28.7463 28.224 28.949C28.2187 29.1542 28.1727 29.3562 28.0887 29.5434C28.0046 29.7306 27.8842 29.8991 27.7343 30.0394C27.5845 30.1796 27.4083 30.2886 27.216 30.3602C27.0237 30.4317 26.819 30.4643 26.614 30.456C26.2053 30.438 25.8201 30.2603 25.5412 29.961C25.2623 29.6617 25.1121 29.2649 25.123 28.856C25.1288 28.6507 25.1753 28.4485 25.2598 28.2613C25.3443 28.0741 25.465 27.9055 25.6152 27.7653C25.7653 27.6251 25.9418 27.5162 26.1343 27.4447C26.3269 27.3733 26.5318 27.3408 26.737 27.349C26.9397 27.3564 27.139 27.4036 27.3235 27.488C27.5079 27.5724 27.6739 27.6923 27.812 27.8409C27.9501 27.9895 28.0576 28.1638 28.1283 28.3539Z" fill="#8C74FB"/>
</g>
<defs>
<clipPath id="clip0_31_26">
<rect width="45" height="45" fill="white"/>
</clipPath>
</defs>
</svg>
