<svg xmlns="http://www.w3.org/2000/svg" width="30" height="30" viewBox="0 0 30 30">
  <g id="ic_your_instagram" transform="translate(-19.701 -11.701)">
    <g id="Rectangle_158" data-name="Rectangle 158" transform="translate(19.701 11.701)" fill="#fff" stroke="#707070" stroke-width="1" opacity="0">
      <rect width="30" height="30" stroke="none"/>
      <rect x="0.5" y="0.5" width="29" height="29" fill="none"/>
    </g>
    <path id="Icon_awesome-instagram" data-name="Icon awesome-instagram" d="M8.543,6.4a4.381,4.381,0,1,0,4.381,4.381A4.374,4.374,0,0,0,8.543,6.4Zm0,7.23a2.848,2.848,0,1,1,2.848-2.848A2.854,2.854,0,0,1,8.543,13.631Zm5.583-7.409A1.022,1.022,0,1,1,13.1,5.2,1.02,1.02,0,0,1,14.126,6.222Zm2.9,1.037a5.057,5.057,0,0,0-1.38-3.581A5.091,5.091,0,0,0,12.066,2.3c-1.411-.08-5.64-.08-7.051,0A5.083,5.083,0,0,0,1.435,3.674,5.074,5.074,0,0,0,.055,7.255c-.08,1.411-.08,5.64,0,7.051a5.057,5.057,0,0,0,1.38,3.581,5.1,5.1,0,0,0,3.581,1.38c1.411.08,5.64.08,7.051,0a5.057,5.057,0,0,0,3.581-1.38,5.091,5.091,0,0,0,1.38-3.581c.08-1.411.08-5.636,0-7.047ZM15.2,15.819a2.884,2.884,0,0,1-1.624,1.624c-1.125.446-3.794.343-5.037.343s-3.916.1-5.037-.343a2.884,2.884,0,0,1-1.624-1.624c-.446-1.125-.343-3.794-.343-5.037s-.1-3.916.343-5.037A2.884,2.884,0,0,1,3.506,4.12c1.125-.446,3.794-.343,5.037-.343s3.916-.1,5.037.343A2.884,2.884,0,0,1,15.2,5.745c.446,1.125.343,3.794.343,5.037S15.651,14.7,15.2,15.819Z" transform="translate(26.16 15.919)" fill="#a2a2a2"/>
  </g>
</svg>
