<svg xmlns="http://www.w3.org/2000/svg" width="30" height="30" viewBox="0 0 30 30">
  <g id="ic_your_twitter" transform="translate(-19.701 -11.701)">
    <g id="Rectangle_158" data-name="Rectangle 158" transform="translate(19.701 11.701)" fill="#fff" stroke="#707070" stroke-width="1" opacity="0">
      <rect width="30" height="30" stroke="none"/>
      <rect x="0.5" y="0.5" width="29" height="29" fill="none"/>
    </g>
    <path id="Icon_awesome-twitter" data-name="Icon awesome-twitter" d="M18.628,7.583c.013.184.013.369.013.553A12.024,12.024,0,0,1,6.534,20.243,12.025,12.025,0,0,1,0,18.333a8.8,8.8,0,0,0,1.028.053A8.522,8.522,0,0,0,6.31,16.568a4.263,4.263,0,0,1-3.979-2.951,5.366,5.366,0,0,0,.8.066,4.5,4.5,0,0,0,1.12-.145A4.256,4.256,0,0,1,.843,9.362V9.309a4.285,4.285,0,0,0,1.923.54A4.261,4.261,0,0,1,1.449,4.158a12.1,12.1,0,0,0,8.774,4.453,4.8,4.8,0,0,1-.105-.975,4.259,4.259,0,0,1,7.364-2.911,8.378,8.378,0,0,0,2.7-1.028,4.244,4.244,0,0,1-1.871,2.345,8.53,8.53,0,0,0,2.45-.659,9.147,9.147,0,0,1-2.134,2.2Z" transform="translate(24.32 14.889)" fill="#a2a2a2"/>
  </g>
</svg>
