<svg xmlns="http://www.w3.org/2000/svg" width="30" height="30" viewBox="0 0 30 30">
  <g id="ic_your_linkedin" transform="translate(-19.701 -11.701)">
    <g id="Rectangle_158" data-name="Rectangle 158" transform="translate(19.701 11.701)" fill="#fff" stroke="#707070" stroke-width="1" opacity="0">
      <rect width="30" height="30" stroke="none"/>
      <rect x="0.5" y="0.5" width="29" height="29" fill="none"/>
    </g>
    <path id="Icon_awesome-linkedin-in" data-name="Icon awesome-linkedin-in" d="M3.46,15.457H.255V5.138h3.2ZM1.856,3.73A1.865,1.865,0,1,1,3.712,1.857,1.872,1.872,0,0,1,1.856,3.73Zm13.6,11.727h-3.2V10.434c0-1.2-.024-2.733-1.666-2.733C8.924,7.7,8.668,9,8.668,10.347v5.11h-3.2V5.138H8.541V6.545h.045a3.367,3.367,0,0,1,3.032-1.666c3.243,0,3.839,2.136,3.839,4.91v5.669Z" transform="translate(26.972 18.971)" fill="#a2a2a2"/>
  </g>
</svg>
